<svg xmlns="http://www.w3.org/2000/svg" xmlns:xlink="http://www.w3.org/1999/xlink" version="1.1" width="1000" height="1000" viewBox="0 0 1000 1000" xml:space="preserve">
<desc>Created with Fabric.js 3.5.0</desc>
<defs>
</defs>
<rect x="0" y="0" width="100%" height="100%" fill="#ffffff"/>
<g transform="matrix(0.8849 0 0 0.8849 500.026 486.9327)" id="fc836297-f37e-43a2-86b4-5406f4a63596">
<path style="stroke: none; stroke-width: 1; stroke-dasharray: none; stroke-linecap: butt; stroke-dashoffset: 0; stroke-linejoin: miter; stroke-miterlimit: 4; is-custom-font: none; font-file-url: none; fill: rgb(48,30,235); fill-rule: nonzero; opacity: 0.1;" transform=" translate(-600.025, -435.2302)" d="M 619.44 213.68 c -71.37 12.06 -142.64 6.89 -211.2 -0.63 s -136.95 -17.34 -208.35 -14.38 c -45.93 1.9 -97.08 11 -129.15 37.45 C 39.87 261.56 35.06 295.89 35 326.88 c -0.08 23.31 1.94 47.43 18.46 66 c 11.48 12.88 29.15 22.11 42.46 34 c 46.31 41.3 32.23 106.33 1.84 161.62 c -14.26 25.94 -31.7 51.45 -41.41 78 s -11 55 6.38 76.65 c 17.22 21.47 50.53 33.57 85.26 39.84 c 70.54 12.74 149.13 4.83 225.17 -5.89 C 541.45 753.29 708 716.17 874.19 679.14 c 61.49 -13.71 123.25 -27.48 182.49 -47.24 c 32.9 -11 66.4 -24.69 87.65 -46 c 27 -27 27.68 -63.93 1.66 -86 c -43.66 -37 -142.48 -28.79 -176.25 -71.09 c -18.58 -23.29 -10.49 -54.92 4.3 -82.86 c 31.71 -59.92 93 -119.12 85.06 -178.86 c -5.48 -41 -47.29 -74.93 -103.33 -83.77 c -58.74 -9.26 -134.18 8.3 -168 49.56 C 753 175.39 682.46 203 619.44 213.68 Z" stroke-linecap="round"/>
</g>
<g transform="matrix(0.8849 0 0 0.8849 443.9676 520.3419)" id="fc836297-f37e-43a2-86b4-5406f4a63596">
<rect style="stroke: none; stroke-width: 1; stroke-dasharray: none; stroke-linecap: butt; stroke-dashoffset: 0; stroke-linejoin: miter; stroke-miterlimit: 4; is-custom-font: none; font-file-url: none; fill: rgb(86,86,97); fill-rule: nonzero; opacity: 1;" x="-141.715" y="-32.815" rx="0" ry="0" width="283.43" height="65.63"/>
</g>
<g transform="matrix(0.8849 0 0 0.8849 443.9676 520.3419)" id="fc836297-f37e-43a2-86b4-5406f4a63596">
<rect style="stroke: none; stroke-width: 1; stroke-dasharray: none; stroke-linecap: butt; stroke-dashoffset: 0; stroke-linejoin: miter; stroke-miterlimit: 4; is-custom-font: none; font-file-url: none; fill: rgb(0,0,0); fill-rule: nonzero; opacity: 0.1;" x="-141.715" y="-32.815" rx="0" ry="0" width="283.43" height="65.63"/>
</g>
<g transform="matrix(0.8849 0 0 0.8849 337.3371 659.2624)" id="fc836297-f37e-43a2-86b4-5406f4a63596">
<polygon style="stroke: none; stroke-width: 1; stroke-dasharray: none; stroke-linecap: butt; stroke-dashoffset: 0; stroke-linejoin: miter; stroke-miterlimit: 4; is-custom-font: none; font-file-url: none; fill: rgb(188,190,201); fill-rule: nonzero; opacity: 1;" points="12.695,-122.015 14.685,53.195 -12.575,122.015 -14.685,-122.015 12.695,-122.015 "/>
</g>
<g transform="matrix(0.8849 0 0 0.8849 443.3039 524.8152)" id="fc836297-f37e-43a2-86b4-5406f4a63596">
<polygon style="stroke: none; stroke-width: 1; stroke-dasharray: none; stroke-linecap: butt; stroke-dashoffset: 0; stroke-linejoin: miter; stroke-miterlimit: 4; is-custom-font: none; font-file-url: none; fill: rgb(86,86,97); fill-rule: nonzero; opacity: 1;" points="-137.975,-25.27 137.975,-23.61 137.975,25.27 -137.975,25.27 -137.975,-25.27 "/>
</g>
<g transform="matrix(0.8849 0 0 0.8849 554.9518 658.0855)" id="fc836297-f37e-43a2-86b4-5406f4a63596">
<polygon style="stroke: none; stroke-width: 1; stroke-dasharray: none; stroke-linecap: butt; stroke-dashoffset: 0; stroke-linejoin: miter; stroke-miterlimit: 4; is-custom-font: none; font-file-url: none; fill: rgb(188,190,201); fill-rule: nonzero; opacity: 1;" points="-11.805,-120.685 11.805,-117.355 11.805,120.685 -11.805,47.875 -11.805,-120.685 "/>
</g>
<g transform="matrix(0.8849 0 0 0.8849 632.177 618.6676)" id="fc836297-f37e-43a2-86b4-5406f4a63596">
<rect style="stroke: none; stroke-width: 1; stroke-dasharray: none; stroke-linecap: butt; stroke-dashoffset: 0; stroke-linejoin: miter; stroke-miterlimit: 4; is-custom-font: none; font-file-url: none; fill: rgb(239,239,240); fill-rule: nonzero; opacity: 1;" x="-66.495" y="-141.3" rx="0" ry="0" width="132.99" height="282.6"/>
</g>
<g transform="matrix(0.8849 0 0 0.8849 632.1769 596.6912)" id="fc836297-f37e-43a2-86b4-5406f4a63596">
<rect style="stroke: none; stroke-width: 1; stroke-dasharray: none; stroke-linecap: butt; stroke-dashoffset: 0; stroke-linejoin: miter; stroke-miterlimit: 4; is-custom-font: none; font-file-url: none; fill: rgb(86,86,97); fill-rule: nonzero; opacity: 1;" x="-55.855" y="-108.615" rx="0" ry="0" width="111.71" height="217.23"/>
</g>
<g transform="matrix(0.8849 0 0 0.8849 632.1769 596.6912)" id="fc836297-f37e-43a2-86b4-5406f4a63596">
<rect style="stroke: none; stroke-width: 1; stroke-dasharray: none; stroke-linecap: butt; stroke-dashoffset: 0; stroke-linejoin: miter; stroke-miterlimit: 4; is-custom-font: none; font-file-url: none; fill: rgb(0,0,0); fill-rule: nonzero; opacity: 0.1;" x="-55.855" y="-108.615" rx="0" ry="0" width="111.71" height="217.23"/>
</g>
<g transform="matrix(0.8849 0 0 0.8849 632.1769 525.8461)" id="fc836297-f37e-43a2-86b4-5406f4a63596">
<rect style="stroke: none; stroke-width: 1; stroke-dasharray: none; stroke-linecap: butt; stroke-dashoffset: 0; stroke-linejoin: miter; stroke-miterlimit: 4; is-custom-font: none; font-file-url: none; fill: rgb(86,86,97); fill-rule: nonzero; opacity: 1;" x="-55.855" y="-24.105" rx="0" ry="0" width="111.71" height="48.21"/>
</g>
<g transform="matrix(0.8849 0 0 0.8849 632.1769 596.5982)" id="fc836297-f37e-43a2-86b4-5406f4a63596">
<rect style="stroke: none; stroke-width: 1; stroke-dasharray: none; stroke-linecap: butt; stroke-dashoffset: 0; stroke-linejoin: miter; stroke-miterlimit: 4; is-custom-font: none; font-file-url: none; fill: rgb(86,86,97); fill-rule: nonzero; opacity: 1;" x="-55.855" y="-51.2" rx="0" ry="0" width="111.71" height="102.4"/>
</g>
<g transform="matrix(0.8849 0 0 0.8849 632.1769 692.8045)" id="fc836297-f37e-43a2-86b4-5406f4a63596">
<rect style="stroke: none; stroke-width: 1; stroke-dasharray: none; stroke-linecap: butt; stroke-dashoffset: 0; stroke-linejoin: miter; stroke-miterlimit: 4; is-custom-font: none; font-file-url: none; fill: rgb(86,86,97); fill-rule: nonzero; opacity: 1;" x="-55.855" y="-51.2" rx="0" ry="0" width="111.71" height="102.4"/>
</g>
<g transform="matrix(0.8849 0 0 0.8849 632.1769 692.8045)" id="fc836297-f37e-43a2-86b4-5406f4a63596">
<rect style="stroke: none; stroke-width: 1; stroke-dasharray: none; stroke-linecap: butt; stroke-dashoffset: 0; stroke-linejoin: miter; stroke-miterlimit: 4; is-custom-font: none; font-file-url: none; fill: rgb(0,0,0); fill-rule: nonzero; opacity: 0.1;" x="-55.855" y="-51.2" rx="0" ry="0" width="111.71" height="102.4"/>
</g>
<g transform="matrix(0.8849 0 0 0.8849 586.8745 751.8451)" id="fc836297-f37e-43a2-86b4-5406f4a63596">
<ellipse style="stroke: none; stroke-width: 1; stroke-dasharray: none; stroke-linecap: butt; stroke-dashoffset: 0; stroke-linejoin: miter; stroke-miterlimit: 4; is-custom-font: none; font-file-url: none; fill: rgb(86,86,97); fill-rule: nonzero; opacity: 1;" cx="0" cy="0" rx="7.2" ry="9.2"/>
</g>
<g transform="matrix(0.8849 0 0 0.8849 675.2318 752.2344)" id="fc836297-f37e-43a2-86b4-5406f4a63596">
<ellipse style="stroke: none; stroke-width: 1; stroke-dasharray: none; stroke-linecap: butt; stroke-dashoffset: 0; stroke-linejoin: miter; stroke-miterlimit: 4; is-custom-font: none; font-file-url: none; fill: rgb(86,86,97); fill-rule: nonzero; opacity: 1;" cx="0" cy="0" rx="7.2" ry="9.2"/>
</g>
<g transform="matrix(0.8849 0 0 0.8849 318.5596 631.5164)" id="fc836297-f37e-43a2-86b4-5406f4a63596">
<polygon style="stroke: none; stroke-width: 1; stroke-dasharray: none; stroke-linecap: butt; stroke-dashoffset: 0; stroke-linejoin: miter; stroke-miterlimit: 4; is-custom-font: none; font-file-url: none; fill: rgb(239,239,240); fill-rule: nonzero; opacity: 1;" points="-0.995,153.37 8.645,153.37 5.995,-153.37 -8.645,-153.37 -0.995,153.37 "/>
</g>
<g transform="matrix(0.8849 0 0 0.8849 569.3668 629.2554)" id="fc836297-f37e-43a2-86b4-5406f4a63596">
<polygon style="stroke: none; stroke-width: 1; stroke-dasharray: none; stroke-linecap: butt; stroke-dashoffset: 0; stroke-linejoin: miter; stroke-miterlimit: 4; is-custom-font: none; font-file-url: none; fill: rgb(239,239,240); fill-rule: nonzero; opacity: 1;" points="-4.485,-153.265 -4.485,153.265 4.485,153.265 4.485,-150.815 -4.485,-153.265 "/>
</g>
<g transform="matrix(0.8849 0 0 0.8849 444.8392 549.38)" id="fc836297-f37e-43a2-86b4-5406f4a63596">
<polygon style="stroke: none; stroke-width: 1; stroke-dasharray: none; stroke-linecap: butt; stroke-dashoffset: 0; stroke-linejoin: miter; stroke-miterlimit: 4; is-custom-font: none; font-file-url: none; fill: rgb(239,239,240); fill-rule: nonzero; opacity: 1;" points="-136.24,-5.49 -136.24,5.49 136.24,5.49 136.24,-2.49 -136.24,-5.49 "/>
</g>
<g transform="matrix(0.8849 0 0 0.8849 500.0835 487.0122)" id="fc836297-f37e-43a2-86b4-5406f4a63596">
<polygon style="stroke: none; stroke-width: 1; stroke-dasharray: none; stroke-linecap: butt; stroke-dashoffset: 0; stroke-linejoin: miter; stroke-miterlimit: 4; is-custom-font: none; font-file-url: none; fill: rgb(255,255,255); fill-rule: nonzero; opacity: 1;" points="-180.2,-13.13 165.24,-13.13 215.44,3.49 215.44,13.13 -215.44,9.81 -215.44,0 -180.2,-13.13 "/>
</g>
<g transform="matrix(0.8849 0 0 0.8849 500.0835 492.8216)" id="fc836297-f37e-43a2-86b4-5406f4a63596">
<polygon style="stroke: none; stroke-width: 1; stroke-dasharray: none; stroke-linecap: butt; stroke-dashoffset: 0; stroke-linejoin: miter; stroke-miterlimit: 4; is-custom-font: none; font-file-url: none; fill: rgb(188,190,201); fill-rule: nonzero; opacity: 1;" points="-215.44,-6.565 215.44,-3.075 215.44,6.565 -215.44,3.245 -215.44,-6.565 "/>
</g>
<g transform="matrix(0.8849 0 0 0.8849 343.058 587.3112)" id="fc836297-f37e-43a2-86b4-5406f4a63596">
<linearGradient id="SVGID_9" gradientUnits="userSpaceOnUse" gradientTransform="matrix(1 0 0 1 0 0)" x1="421.41" y1="548.67" x2="423.73" y2="548.67">
<stop offset="0%" style="stop-color:rgb(128,128,128);stop-opacity: 0.25"/>
<stop offset="54%" style="stop-color:rgb(128,128,128);stop-opacity: 0.12"/>
<stop offset="100%" style="stop-color:rgb(128,128,128);stop-opacity: 0.1"/>
</linearGradient>
<path style="stroke: none; stroke-width: 1; stroke-dasharray: none; stroke-linecap: butt; stroke-dashoffset: 0; stroke-linejoin: miter; stroke-miterlimit: 4; is-custom-font: none; font-file-url: none; fill: url(#SVGID_9); fill-rule: nonzero; opacity: 1;" transform=" translate(-422.64, -548.665)" d="M 423.68 549.64 l -2 -0.3 c 0 -0.09 0 -0.17 0 -0.25 c -0.06 -0.47 -0.13 -0.93 -0.2 -1.4 c 0.82 0.65 1.6 1.3 2.32 1.95 Z" stroke-linecap="round"/>
</g>
<g transform="matrix(0.8849 0 0 0.8849 317.4701 746.7232)" id="fc836297-f37e-43a2-86b4-5406f4a63596">
<path style="stroke: none; stroke-width: 1; stroke-dasharray: none; stroke-linecap: butt; stroke-dashoffset: 0; stroke-linejoin: miter; stroke-miterlimit: 4; is-custom-font: none; font-file-url: none; fill: rgb(162,101,101); fill-rule: nonzero; opacity: 1;" transform=" translate(-393.7239, -728.812)" d="M 380.22 704.05 c 1.3 -0.3 2.62 -0.55 3.94 -0.73 a 47.42 47.42 0 0 1 26.62 3.92 c -0.84 6.18 -1.67 12.57 0.11 18.54 c 1.24 4.2 3.73 8 4.26 12.38 a 7.3 7.3 0 0 1 5.75 5.08 a 11.05 11.05 0 0 1 0.57 3.56 a 19 19 0 0 1 -0.56 4.44 a 4.48 4.48 0 0 1 -4.8 4 c -7.74 0.88 -15.33 -2.17 -22.53 -5.16 l -14 -5.82 c -1.64 -0.68 -3.29 -1.37 -4.86 -2.21 a 26.63 26.63 0 0 1 -7.79 -6.37 A 3.55 3.55 0 0 1 366 734 c -0.26 -1.76 1.8 -2.81 3.11 -4 a 6.23 6.23 0 0 0 1 -1.22 c 1.55 -2.34 1.7 -5.57 2.63 -8.33 c 2.2 -6.55 9 -10.77 11.4 -17.16 c 0.13 -0.35 0.25 -0.7 0.35 -1.06" stroke-linecap="round"/>
</g>
<g transform="matrix(0.8849 0 0 0.8849 317.4701 758.4703)" id="fc836297-f37e-43a2-86b4-5406f4a63596">
<path style="stroke: none; stroke-width: 1; stroke-dasharray: none; stroke-linecap: butt; stroke-dashoffset: 0; stroke-linejoin: miter; stroke-miterlimit: 4; is-custom-font: none; font-file-url: none; fill: rgb(0,0,0); fill-rule: nonzero; opacity: 0.1;" transform=" translate(-393.7238, -742.087)" d="M 421.47 746.8 a 19 19 0 0 1 -0.56 4.44 a 4.48 4.48 0 0 1 -4.8 4 c -7.74 0.88 -15.33 -2.17 -22.53 -5.16 l -14 -5.82 c -1.64 -0.68 -3.29 -1.37 -4.86 -2.21 a 26.63 26.63 0 0 1 -7.79 -6.37 A 3.55 3.55 0 0 1 366 734 c -0.26 -1.76 1.8 -2.81 3.11 -4 a 6.23 6.23 0 0 0 1 -1.22 c 3.86 0.83 8.65 3.26 11.6 4.2 a 35.22 35.22 0 0 1 8.44 3.53 c 3.68 2.36 6.33 6 9.45 9 s 7.15 5.73 11.5 5.36 a 19 19 0 0 0 6.54 -2.26 Z" stroke-linecap="round"/>
</g>
<g transform="matrix(0.8849 0 0 0.8849 332.631 682.087)" id="fc836297-f37e-43a2-86b4-5406f4a63596">
<path style="stroke: none; stroke-width: 1; stroke-dasharray: none; stroke-linecap: butt; stroke-dashoffset: 0; stroke-linejoin: miter; stroke-miterlimit: 4; is-custom-font: none; font-file-url: none; fill: rgb(69,75,105); fill-rule: nonzero; opacity: 1;" transform=" translate(-410.8567, -655.7684)" d="M 405.08 604.69 a 4.63 4.63 0 0 1 -1.7 5 c -1.31 0.81 -3 0.7 -4.3 1.58 c -1.61 1.13 -1.84 3.37 -2.12 5.31 c -1 6.67 -4.31 12.72 -7.14 18.85 s -5.22 12.82 -4.18 19.48 c 0.71 4.52 2.93 9.34 0.85 13.41 c -0.51 1 -1.27 1.89 -1.85 2.86 c -2.85 4.76 -1.23 10.79 -1.34 16.33 a 3.23 3.23 0 0 1 -0.39 1.77 a 4.89 4.89 0 0 1 -1.58 1.22 a 8.38 8.38 0 0 0 -3.41 6.43 a 24.57 24.57 0 0 0 0.9 7.46 a 4.44 4.44 0 0 0 1.23 2.6 a 4.6 4.6 0 0 0 2.69 0.76 A 59.84 59.84 0 0 1 401 712.19 c 3.79 1.58 7.47 3.56 11.5 4.32 a 3 3 0 0 0 2.36 -0.25 a 3.25 3.25 0 0 0 1 -1.73 c 1.55 -5.1 3.12 -10.36 2.59 -15.66 c -0.23 -2.28 -0.84 -4.51 -1 -6.79 c -0.7 -9 5.39 -17.12 7.32 -26 c 0.87 -4 0.87 -8.14 1.49 -12.18 c 1.68 -11.07 7.78 -21 10.13 -31.95 a 34.73 34.73 0 0 1 1.52 -6 c 1.75 -4.24 5.8 -7.68 5.89 -12.27 a 4.78 4.78 0 0 0 -0.76 -2.86 a 6.48 6.48 0 0 0 -3.57 -2 a 121.87 121.87 0 0 0 -16.55 -3.34 a 31.35 31.35 0 0 0 -7.78 -0.54 a 22.9 22.9 0 0 0 -9.52 3.36 C 401.76 600.68 404.24 601.25 405.08 604.69 Z" stroke-linecap="round"/>
</g>
<g transform="matrix(0.8849 0 0 0.8849 332.631 682.087)" id="fc836297-f37e-43a2-86b4-5406f4a63596">
<path style="stroke: none; stroke-width: 1; stroke-dasharray: none; stroke-linecap: butt; stroke-dashoffset: 0; stroke-linejoin: miter; stroke-miterlimit: 4; is-custom-font: none; font-file-url: none; fill: rgb(0,0,0); fill-rule: nonzero; opacity: 0.05;" transform=" translate(-410.8567, -655.7684)" d="M 405.08 604.69 a 4.63 4.63 0 0 1 -1.7 5 c -1.31 0.81 -3 0.7 -4.3 1.58 c -1.61 1.13 -1.84 3.37 -2.12 5.31 c -1 6.67 -4.31 12.72 -7.14 18.85 s -5.22 12.82 -4.18 19.48 c 0.71 4.52 2.93 9.34 0.85 13.41 c -0.51 1 -1.27 1.89 -1.85 2.86 c -2.85 4.76 -1.23 10.79 -1.34 16.33 a 3.23 3.23 0 0 1 -0.39 1.77 a 4.89 4.89 0 0 1 -1.58 1.22 a 8.38 8.38 0 0 0 -3.41 6.43 a 24.57 24.57 0 0 0 0.9 7.46 a 4.44 4.44 0 0 0 1.23 2.6 a 4.6 4.6 0 0 0 2.69 0.76 A 59.84 59.84 0 0 1 401 712.19 c 3.79 1.58 7.47 3.56 11.5 4.32 a 3 3 0 0 0 2.36 -0.25 a 3.25 3.25 0 0 0 1 -1.73 c 1.55 -5.1 3.12 -10.36 2.59 -15.66 c -0.23 -2.28 -0.84 -4.51 -1 -6.79 c -0.7 -9 5.39 -17.12 7.32 -26 c 0.87 -4 0.87 -8.14 1.49 -12.18 c 1.68 -11.07 7.78 -21 10.13 -31.95 a 34.73 34.73 0 0 1 1.52 -6 c 1.75 -4.24 5.8 -7.68 5.89 -12.27 a 4.78 4.78 0 0 0 -0.76 -2.86 a 6.48 6.48 0 0 0 -3.57 -2 a 121.87 121.87 0 0 0 -16.55 -3.34 a 31.35 31.35 0 0 0 -7.78 -0.54 a 22.9 22.9 0 0 0 -9.52 3.36 C 401.76 600.68 404.24 601.25 405.08 604.69 Z" stroke-linecap="round"/>
</g>
<g transform="matrix(0.8849 0 0 0.8849 303.7862 715.5155)" id="fc836297-f37e-43a2-86b4-5406f4a63596">
<polygon style="stroke: none; stroke-width: 1; stroke-dasharray: none; stroke-linecap: butt; stroke-dashoffset: 0; stroke-linejoin: miter; stroke-miterlimit: 4; is-custom-font: none; font-file-url: none; fill: rgb(86,86,97); fill-rule: nonzero; opacity: 1;" points="7.25,61.855 -1.28,61.855 -6.86,-52.785 -7.25,-59.305 0,-61.855 0.49,-54.925 7.25,61.855 "/>
</g>
<g transform="matrix(0.8849 0 0 0.8849 300.7952 664.7931)" id="fc836297-f37e-43a2-86b4-5406f4a63596">
<polygon style="stroke: none; stroke-width: 1; stroke-dasharray: none; stroke-linecap: butt; stroke-dashoffset: 0; stroke-linejoin: miter; stroke-miterlimit: 4; is-custom-font: none; font-file-url: none; fill: rgb(0,0,0); fill-rule: nonzero; opacity: 0.1;" points="3.87,2.395 -3.48,4.535 -3.87,-1.985 3.38,-4.535 3.87,2.395 "/>
</g>
<g transform="matrix(0.8849 0 0 0.8849 295.1098 729.2934)" id="fc836297-f37e-43a2-86b4-5406f4a63596">
<polygon style="stroke: none; stroke-width: 1; stroke-dasharray: none; stroke-linecap: butt; stroke-dashoffset: 0; stroke-linejoin: miter; stroke-miterlimit: 4; is-custom-font: none; font-file-url: none; fill: rgb(86,86,97); fill-rule: nonzero; opacity: 1;" points="124.085,70.535 110.015,72.235 45.195,-74.875 27.715,-76.155 -2.985,-67.195 -8.955,107.955 -23.025,107.955 -17.485,-73.595 -51.175,-72.735 -111.295,76.925 -124.085,76.925 -60.855,-97.985 -58.415,-104.725 35.815,-107.955 59.305,-94.785 59.605,-94.025 124.085,70.535 "/>
</g>
<g transform="matrix(0.8849 0 0 0.8849 294.5567 646.8886)" id="fc836297-f37e-43a2-86b4-5406f4a63596">
<path style="stroke: none; stroke-width: 1; stroke-dasharray: none; stroke-linecap: butt; stroke-dashoffset: 0; stroke-linejoin: miter; stroke-miterlimit: 4; is-custom-font: none; font-file-url: none; fill: rgb(0,0,0); fill-rule: nonzero; opacity: 0.1;" transform=" translate(-367.83, -615.9917)" d="M 428.06 615.09 c -20.25 6.1 -41.27 12.76 -41.27 12.76 s -19.17 6.69 -27.29 0 a 12.27 12.27 0 0 0 -3.39 -1.87 a 16.7 16.7 0 0 0 3.39 1.87 l -51.9 -16.73 l 2.43 -6.73 l 94.24 -3.23 l 23.49 13.17 Z" stroke-linecap="round"/>
</g>
<g transform="matrix(0.8849 0 0 0.8849 323.5896 633.7429)" id="fc836297-f37e-43a2-86b4-5406f4a63596">
<path style="stroke: none; stroke-width: 1; stroke-dasharray: none; stroke-linecap: butt; stroke-dashoffset: 0; stroke-linejoin: miter; stroke-miterlimit: 4; is-custom-font: none; font-file-url: none; fill: rgb(255,255,255); fill-rule: nonzero; opacity: 1;" transform=" translate(-400.6393, -601.1361)" d="M 332.21 586.06 l 38.37 -8.53 s 91.68 17.06 98.5 23.88 c 0 0 -73.34 14.92 -81.44 20 S 331.35 632.11 332.21 586.06 Z" stroke-linecap="round"/>
</g>
<g transform="matrix(0.8849 0 0 0.8849 237.4926 504.8079)" id="fc836297-f37e-43a2-86b4-5406f4a63596">
<path style="stroke: none; stroke-width: 1; stroke-dasharray: none; stroke-linecap: butt; stroke-dashoffset: 0; stroke-linejoin: miter; stroke-miterlimit: 4; is-custom-font: none; font-file-url: none; fill: rgb(48,30,235); fill-rule: nonzero; opacity: 1;" transform=" translate(-303.3436, -455.4303)" d="M 315.71 490.17 c -3 9.51 -11.19 18.08 -21.16 18.49 a 3.69 3.69 0 0 1 -2.11 -0.38 c -1.25 -0.78 -1.28 -2.61 -0.77 -4 s 1.4 -2.64 1.54 -4.1 a 2.68 2.68 0 0 0 -0.06 -0.89 c -0.26 -1.19 -1.23 -2.25 -2.37 -2 a 4 4 0 0 0 0.85 -5.31 a 12 12 0 0 1 -1.22 -1.64 c -0.83 -1.7 0.46 -3.61 1 -5.43 c 1.11 -4 -1.71 -8 -1.94 -12.17 c -0.2 -3.73 1.69 -7.24 2.16 -10.94 c 0.75 -6 -2.23 -11.75 -2.58 -17.74 c -0.24 -4.18 0.79 -8.32 1.94 -12.35 c 1 -3.6 2.13 -7.24 2.2 -11 c 0 -2.73 -0.47 -5.43 -0.6 -8.15 a 14.19 14.19 0 0 1 1.31 -7.24 a 5.79 5.79 0 0 1 3.29 -2.81 c 3.28 -1.1 5.43 0.61 5.91 3.72 c 0.8 5.29 0.34 10.69 1.39 16 a 75 75 0 0 0 4.39 14.49 c 1.77 4.22 3.92 8.3 5.28 12.67 a 69.8 69.8 0 0 1 2.19 11 C 317.69 470.38 318.74 480.66 315.71 490.17 Z" stroke-linecap="round"/>
</g>
<g transform="matrix(0.8849 0 0 0.8849 427.3155 744.4985)" id="fc836297-f37e-43a2-86b4-5406f4a63596">
<path style="stroke: none; stroke-width: 1; stroke-dasharray: none; stroke-linecap: butt; stroke-dashoffset: 0; stroke-linejoin: miter; stroke-miterlimit: 4; is-custom-font: none; font-file-url: none; fill: rgb(162,101,101); fill-rule: nonzero; opacity: 1;" transform=" translate(-517.8569, -726.2978)" d="M 543.47 732.21 a 15.51 15.51 0 0 1 -10.93 6.44 c -4.34 0.54 -8.85 -0.55 -13.06 0.64 a 4 4 0 0 0 -3 2.31 a 24.54 24.54 0 0 0 -0.19 2.45 c -0.49 2.67 -4 3.27 -6.73 3.25 l -11.26 -0.07 c -2.34 0 -4.93 -0.13 -6.61 -1.75 a 4.92 4.92 0 0 1 -0.1 -6.48 a 4.07 4.07 0 0 1 1.26 -1 a 4 4 0 0 1 -2.7 -3.21 a 11.94 11.94 0 0 1 0.21 -4.41 c 0 -4.18 1 -11.18 3.94 -14.45 c 3.61 -4.07 9.87 -9.33 15.32 -10.42 A 12 12 0 0 1 520 708.46 c 2.58 2.4 4.46 6.16 8 6.58 c 1.93 0.24 3.79 -0.67 5.7 -1 a 10.61 10.61 0 0 1 10.81 5.71 a 11.26 11.26 0 0 1 1 3.13 A 13 13 0 0 1 543.47 732.21 Z" stroke-linecap="round"/>
</g>
<g transform="matrix(0.8849 0 0 0.8849 427.4679 752.2834)" id="fc836297-f37e-43a2-86b4-5406f4a63596">
<path style="stroke: none; stroke-width: 1; stroke-dasharray: none; stroke-linecap: butt; stroke-dashoffset: 0; stroke-linejoin: miter; stroke-miterlimit: 4; is-custom-font: none; font-file-url: none; fill: rgb(0,0,0); fill-rule: nonzero; opacity: 0.1;" transform=" translate(-518.0291, -735.0952)" d="M 543.47 732.21 a 15.51 15.51 0 0 1 -10.93 6.44 c -4.34 0.54 -8.85 -0.55 -13.06 0.64 a 4 4 0 0 0 -3 2.31 a 24.54 24.54 0 0 0 -0.19 2.45 c -0.49 2.67 -4 3.27 -6.73 3.25 l -11.26 -0.07 c -2.34 0 -4.93 -0.13 -6.61 -1.75 a 4.92 4.92 0 0 1 -0.1 -6.48 c 6.5 -0.27 12.89 0 19.37 -1.34 c 2.63 -0.53 5.22 -1.23 7.88 -1.6 c 5.76 -0.82 11.89 -0.12 17.18 -2.56 c 4.41 -2 7.57 -6.07 9.44 -10.61 A 13 13 0 0 1 543.47 732.21 Z" stroke-linecap="round"/>
</g>
<g transform="matrix(0.8849 0 0 0.8849 327.5038 659.612)" id="fc836297-f37e-43a2-86b4-5406f4a63596">
<path style="stroke: none; stroke-width: 1; stroke-dasharray: none; stroke-linecap: butt; stroke-dashoffset: 0; stroke-linejoin: miter; stroke-miterlimit: 4; is-custom-font: none; font-file-url: none; fill: rgb(69,75,105); fill-rule: nonzero; opacity: 1;" transform=" translate(-405.0626, -630.37)" d="M 513.76 716.4 c -4 3.1 -8.69 5.52 -13.73 5.78 s -10.39 -2 -12.86 -6.38 c -3.61 -6.43 -0.41 -15.37 -4.83 -21.27 c -1.38 -1.85 -3.37 -3.16 -4.83 -4.95 s -2.3 -4.48 -1 -6.38 c -1.57 0.6 -3.23 -0.92 -3.69 -2.54 s -0.17 -3.36 -0.45 -5 c -0.73 -4.35 -5 -7.14 -7.05 -11 s -1.77 -8.87 -2 -13.44 a 51 51 0 0 0 -11.8 -30.35 c -1.36 -1.62 -3.1 -3.27 -5.22 -3.19 c 0.37 -3.66 -2.07 -7.16 -5.23 -9 s -6.92 -2.46 -10.58 -2.82 c -36.93 -3.64 -75.41 10.09 -110.67 -1.46 c -9.81 -3.21 -19.27 -8.58 -25.27 -17 a 29.72 29.72 0 0 1 -5.29 -22.48 l 0 -0.14 c 1.39 -7.1 5.14 -8.85 11.35 -12.09 A 136.24 136.24 0 0 1 323 543.3 c 15 -4.69 31.15 -6.38 46.63 -2.94 c 7.23 1.62 14.2 4.3 21.44 5.87 c 2.85 0.62 5.72 1.06 8.61 1.43 c 4.49 0.56 9 0.93 13.52 1.45 a 204.53 204.53 0 0 1 42.46 9.55 c 5.13 1.74 10.26 3.73 14.67 6.88 A 32.5 32.5 0 0 1 483.37 587 c 0.42 2.94 0.43 6 1.07 8.85 a 45 45 0 0 0 2.4 7 a 465.63 465.63 0 0 1 20.89 65 a 15.79 15.79 0 0 0 1.67 4.7 c 1.28 2.07 3.48 3.46 4.77 5.53 c 3 4.88 0.11 11.69 2.77 16.77 c 0.92 1.76 2.45 3.15 3.37 4.91 C 523.31 705.53 518.88 712.43 513.76 716.4 Z" stroke-linecap="round"/>
</g>
<g transform="matrix(0.8849 0 0 0.8849 376.2118 633.5202)" id="fc836297-f37e-43a2-86b4-5406f4a63596">
<path style="stroke: none; stroke-width: 1; stroke-dasharray: none; stroke-linecap: butt; stroke-dashoffset: 0; stroke-linejoin: miter; stroke-miterlimit: 4; is-custom-font: none; font-file-url: none; fill: rgb(0,0,0); fill-rule: nonzero; opacity: 0.1;" transform=" translate(-460.1062, -600.8844)" d="M 462.66 601.5 a 16.5 16.5 0 0 0 3.63 -4 a 7.46 7.46 0 0 0 1.1 -5.17 a 14.79 14.79 0 0 1 -3.89 12.72 c -2.51 2.57 -7.22 5.09 -10.89 4.21 C 453.13 606.32 460.33 603.48 462.66 601.5 Z" stroke-linecap="round"/>
</g>
<g transform="matrix(0.8849 0 0 0.8849 274.1649 589.9836)" id="fc836297-f37e-43a2-86b4-5406f4a63596">
<path style="stroke: none; stroke-width: 1; stroke-dasharray: none; stroke-linecap: butt; stroke-dashoffset: 0; stroke-linejoin: miter; stroke-miterlimit: 4; is-custom-font: none; font-file-url: none; fill: rgb(0,0,0); fill-rule: nonzero; opacity: 0.1;" transform=" translate(-344.7858, -551.6849)" d="M 400.18 551.66 a 6.71 6.71 0 0 1 -4.44 4.58 a 18.5 18.5 0 0 1 -6.59 0.77 l -2 0 c -26.24 -0.58 -52.76 -6.4 -78.39 -0.85 a 56.76 56.76 0 0 0 -9.06 2.67 a 40.9 40.9 0 0 0 -10.41 6 l 0 -0.14 c 1.39 -7.1 5.14 -8.85 11.35 -12.09 A 136.24 136.24 0 0 1 323 543.3 c 15 -4.69 31.15 -6.38 46.63 -2.94 c 7.23 1.62 14.2 4.3 21.44 5.87 c 2.85 0.62 5.72 1.06 8.61 1.43 A 6.91 6.91 0 0 1 400.18 551.66 Z" stroke-linecap="round"/>
</g>
<g transform="matrix(0.8849 0 0 0.8849 272.8695 582.3533)" id="fc836297-f37e-43a2-86b4-5406f4a63596">
<path style="stroke: none; stroke-width: 1; stroke-dasharray: none; stroke-linecap: butt; stroke-dashoffset: 0; stroke-linejoin: miter; stroke-miterlimit: 4; is-custom-font: none; font-file-url: none; fill: rgb(162,101,101); fill-rule: nonzero; opacity: 1;" transform=" translate(-343.322, -543.0623)" d="M 400.18 550.23 a 6.7 6.7 0 0 1 -4.44 4.59 a 18.27 18.27 0 0 1 -6.59 0.76 l -2 0 c -26.24 -0.58 -52.76 -6.4 -78.39 -0.85 a 57.78 57.78 0 0 0 -9.06 2.66 a 41.2 41.2 0 0 0 -10.85 6.4 q -1.15 -3.16 -2.29 -6.33 c -0.92 -2.52 2 -3.08 2.56 -5.34 c 0.37 -1.53 -0.26 -3.27 -0.58 -4.9 a 8.55 8.55 0 0 1 -0.16 -1.21 c -0.18 -3.61 1.11 -5.69 4.07 -7.64 c 8.78 -5.8 19.49 -9.78 29.51 -12.77 a 73 73 0 0 1 16.4 -3.18 c 7.88 -0.46 15.75 1 23.42 2.85 c 9.43 2.33 18.76 5.41 27.12 10.34 C 393 538 397 541 399.21 545.26 A 7.6 7.6 0 0 1 400.18 550.23 Z" stroke-linecap="round"/>
</g>
<g transform="matrix(0.8849 0 0 0.8849 238.5287 504.8388)" id="fc836297-f37e-43a2-86b4-5406f4a63596">
<path style="stroke: none; stroke-width: 1; stroke-dasharray: none; stroke-linecap: butt; stroke-dashoffset: 0; stroke-linejoin: miter; stroke-miterlimit: 4; is-custom-font: none; font-file-url: none; fill: rgb(0,0,0); fill-rule: nonzero; opacity: 0.1;" transform=" translate(-304.5145, -455.4653)" d="M 315.71 490.17 c -3 9.51 -11.19 18.08 -21.16 18.49 a 3.69 3.69 0 0 1 -2.11 -0.38 c -1.25 -0.78 -1.28 -2.61 -0.77 -4 s 1.4 -2.64 1.54 -4.1 a 2.68 2.68 0 0 0 -0.06 -0.89 c 5.29 -7.46 10.42 -15 12.45 -23.83 a 12.74 12.74 0 0 0 0.37 -4.67 c -0.27 -1.8 -1.18 -3.43 -1.68 -5.17 c -0.88 -3.08 -0.47 -6.34 -0.22 -9.53 A 88 88 0 0 0 297.23 415 c -1.35 -3.12 -2.89 -6.28 -3.36 -9.61 a 5.79 5.79 0 0 1 3.29 -2.81 c 3.28 -1.1 5.43 0.61 5.91 3.72 c 0.8 5.29 0.34 10.69 1.39 16 a 75 75 0 0 0 4.39 14.49 c 1.77 4.22 3.92 8.3 5.28 12.67 a 69.8 69.8 0 0 1 2.19 11 C 317.69 470.38 318.74 480.66 315.71 490.17 Z" stroke-linecap="round"/>
</g>
<g transform="matrix(0.8849 0 0 0.8849 273.7595 578.7217)" id="fc836297-f37e-43a2-86b4-5406f4a63596">
<path style="stroke: none; stroke-width: 1; stroke-dasharray: none; stroke-linecap: butt; stroke-dashoffset: 0; stroke-linejoin: miter; stroke-miterlimit: 4; is-custom-font: none; font-file-url: none; fill: rgb(0,0,0); fill-rule: nonzero; opacity: 0.1;" transform=" translate(-344.3277, -538.9582)" d="M 400.18 550.23 a 6.7 6.7 0 0 1 -4.44 4.59 a 18.27 18.27 0 0 1 -6.59 0.76 l -2 0 a 43.57 43.57 0 0 0 -29 -7 c -3.26 0.39 -6.52 1.15 -9.78 0.85 c -6.59 -0.6 -11.93 -5.34 -17.8 -8.37 a 37.38 37.38 0 0 0 -41.43 5.62 l -0.57 0.5 a 8.55 8.55 0 0 1 -0.16 -1.21 c -0.18 -3.61 1.11 -5.69 4.07 -7.64 c 8.78 -5.8 19.49 -9.78 29.51 -12.77 a 73 73 0 0 1 16.4 -3.18 c 7.88 -0.46 15.75 1 23.42 2.85 c 9.43 2.33 18.76 5.41 27.12 10.34 C 393 538 397 541 399.21 545.26 A 7.6 7.6 0 0 1 400.18 550.23 Z" stroke-linecap="round"/>
</g>
<g transform="matrix(0.8849 0 0 0.8849 280.5813 513.5038)" id="fc836297-f37e-43a2-86b4-5406f4a63596">
<path style="stroke: none; stroke-width: 1; stroke-dasharray: none; stroke-linecap: butt; stroke-dashoffset: 0; stroke-linejoin: miter; stroke-miterlimit: 4; is-custom-font: none; font-file-url: none; fill: rgb(48,30,235); fill-rule: nonzero; opacity: 1;" transform=" translate(-352.0369, -465.2574)" d="M 422.61 440.69 l -0.14 0.36 c -2.24 5.81 -6.36 10.72 -9 16.38 c -3.33 7.17 -4.15 15.21 -4.89 23.09 c -0.64 6.75 -1.27 13.54 -0.76 20.31 c 1.28 16.68 9.43 32.5 11.61 48.86 a 54.31 54.31 0 0 1 0.41 11.41 c -0.18 2.41 -0.62 5 -2.22 6.78 s -4.71 2.48 -6.43 0.77 c 0.77 -1.47 1.55 -2.93 2.33 -4.4 c -4.57 -3.55 -11.45 -1 -16.79 -3.22 c -2.35 -1 -4.23 -2.8 -6.2 -4.41 a 43.48 43.48 0 0 0 -32.39 -9.46 c -3.26 0.4 -6.52 1.16 -9.78 0.86 c -6.59 -0.61 -11.93 -5.34 -17.8 -8.37 a 37.4 37.4 0 0 0 -41.43 5.61 c -1.4 1.3 -3.28 2.82 -5 2 a 4.16 4.16 0 0 1 -1.55 -1.69 c -6.55 -11.19 -1.73 -25.62 5.27 -36.52 S 304.12 488.1 307 475.47 a 12.53 12.53 0 0 0 0.37 -4.67 c -0.27 -1.8 -1.18 -3.43 -1.68 -5.17 c -0.88 -3.08 -0.47 -6.34 -0.22 -9.53 A 88 88 0 0 0 298.65 415 c -1.6 -3.73 -3.5 -7.51 -3.5 -11.56 c 0 -6.38 4.57 -11.67 8.35 -16.8 c 4.35 -5.9 8 -12.43 13.51 -17.28 c 5.22 -4.61 12.78 -7.43 19.24 -5.09 A 119.94 119.94 0 0 1 369.81 361 c 3.9 0.18 7.93 0.59 11.35 2.48 c 3.66 2 6.29 5.56 9.89 7.69 c 2.63 1.57 5.66 2.31 8.52 3.41 A 35.21 35.21 0 0 1 417.93 391 c 4 7.75 5 16.66 5.88 25.34 C 424.65 424.51 425.45 433 422.61 440.69 Z" stroke-linecap="round"/>
</g>
<g transform="matrix(0.8849 0 0 0.8849 326.7966 517.2753)" id="fc836297-f37e-43a2-86b4-5406f4a63596">
<path style="stroke: none; stroke-width: 1; stroke-dasharray: none; stroke-linecap: butt; stroke-dashoffset: 0; stroke-linejoin: miter; stroke-miterlimit: 4; is-custom-font: none; font-file-url: none; fill: rgb(0,0,0); fill-rule: nonzero; opacity: 0.1;" transform=" translate(-404.2635, -469.5195)" d="M 407.82 500.83 c 1.28 16.68 9.43 32.5 11.61 48.86 C 415.07 546 409 542.29 408.19 538 c -0.9 -4.64 -3.78 -10.72 -4.26 -15.41 s 2.81 -10.42 -0.64 -13.64 c -1.68 -1.57 2.79 -1.13 1.15 -2.74 c -3.69 -3.59 -4.6 -9.12 -4.83 -14.25 c -0.39 -9.08 0.76 -18.26 -0.91 -27.19 c -1 -5.51 -3.09 -10.76 -4.76 -16.11 c -1.94 -6.23 -3.34 -12.61 -4.74 -19 a 133.12 133.12 0 0 1 -3 -17.26 c -0.43 -5 -0.23 -10.3 2 -14.86 s 6.74 -8.26 11.8 -8.19 c 16.92 0.22 14 23.16 17.72 33.76 c 1.49 4.22 3.5 8.3 4.31 12.7 a 33.66 33.66 0 0 1 0.48 5.22 c -2.24 5.81 -6.36 10.72 -9 16.38 c -3.33 7.17 -4.15 15.21 -4.89 23.09 C 407.94 487.27 407.31 494.06 407.82 500.83 Z" stroke-linecap="round"/>
</g>
<g transform="matrix(0.8849 0 0 0.8849 336.7378 523.5503)" id="fc836297-f37e-43a2-86b4-5406f4a63596">
<path style="stroke: none; stroke-width: 1; stroke-dasharray: none; stroke-linecap: butt; stroke-dashoffset: 0; stroke-linejoin: miter; stroke-miterlimit: 4; is-custom-font: none; font-file-url: none; fill: rgb(48,30,235); fill-rule: nonzero; opacity: 1;" transform=" translate(-415.4977, -476.6106)" d="M 418.82 422.85 c 1.49 4.22 3.5 8.3 4.31 12.7 c 1.35 7.37 -0.74 15.2 1.53 22.34 a 38.92 38.92 0 0 1 1.48 4.67 c 0.39 2.27 -0.06 4.59 -0.06 6.9 c 0 3.72 1.17 7.32 2.21 10.89 a 194.63 194.63 0 0 1 6.95 37.16 a 46.59 46.59 0 0 0 1.59 10 a 33.21 33.21 0 0 1 1.08 3.38 a 17.48 17.48 0 0 1 0.19 4.63 c -0.27 4.9 -0.82 9.82 -0.27 14.7 s 2.33 9.83 6 13.1 c -3.28 0.71 -6.75 1.42 -9.95 0.37 c -4.5 -1.47 -7.2 -6 -9.49 -10.12 c -2.9 -5.26 -13.92 -10 -15.06 -15.91 c -0.89 -4.63 -3.77 -10.71 -4.25 -15.41 s 2.8 -10.41 -0.65 -13.63 c -1.67 -1.57 2.8 -1.14 1.15 -2.74 c -3.68 -3.59 -4.59 -9.12 -4.82 -14.26 c -0.39 -9.07 0.75 -18.25 -0.91 -27.18 c -1 -5.51 -3.09 -10.76 -4.76 -16.12 c -1.94 -6.22 -3.34 -12.6 -4.74 -19 a 131.73 131.73 0 0 1 -3 -17.26 c -0.43 -5 -0.24 -10.31 2 -14.87 s 6.75 -8.25 11.8 -8.19 C 418 389.3 415.1 412.25 418.82 422.85 Z" stroke-linecap="round"/>
</g>
<g transform="matrix(0.8849 0 0 0.8849 297.5189 478.2835)" id="fc836297-f37e-43a2-86b4-5406f4a63596">
<path style="stroke: none; stroke-width: 1; stroke-dasharray: none; stroke-linecap: butt; stroke-dashoffset: 0; stroke-linejoin: miter; stroke-miterlimit: 4; is-custom-font: none; font-file-url: none; fill: rgb(0,0,0); fill-rule: nonzero; opacity: 0.1;" transform=" translate(-371.1776, -425.4559)" d="M 370.6 426.76 c 1.58 1.85 3.61 3.88 6 3.52 a 1.3 1.3 0 0 1 -1.77 0.42 a 3.8 3.8 0 0 1 -1.33 -1.53 l -3.42 -5.77 c -0.45 -0.75 -3.55 -5.12 -4.31 -2.6 C 365.47 421.87 369.83 425.86 370.6 426.76 Z" stroke-linecap="round"/>
</g>
<g transform="matrix(0.8849 0 0 0.8849 287.1412 487.7063)" id="fc836297-f37e-43a2-86b4-5406f4a63596">
<path style="stroke: none; stroke-width: 1; stroke-dasharray: none; stroke-linecap: butt; stroke-dashoffset: 0; stroke-linejoin: miter; stroke-miterlimit: 4; is-custom-font: none; font-file-url: none; fill: rgb(0,0,0); fill-rule: nonzero; opacity: 0.1;" transform=" translate(-359.45, -436.1044)" d="M 368.76 441.15 a 7.62 7.62 0 0 0 -2.23 -5 a 12.5 12.5 0 0 0 -4.13 -2.49 c -3.75 -1.54 -8.19 -2.78 -12.26 -2.58 c 1.48 2.16 6.23 3.45 8.61 4.67 Q 363.81 438.36 368.76 441.15 Z" stroke-linecap="round"/>
</g>
<g transform="matrix(0.8849 0 0 0.8849 290.4186 545.3217)" id="fc836297-f37e-43a2-86b4-5406f4a63596">
<path style="stroke: none; stroke-width: 1; stroke-dasharray: none; stroke-linecap: butt; stroke-dashoffset: 0; stroke-linejoin: miter; stroke-miterlimit: 4; is-custom-font: none; font-file-url: none; fill: rgb(0,0,0); fill-rule: nonzero; opacity: 0.1;" transform=" translate(-363.1537, -501.2139)" d="M 379.41 482.11 c -0.69 5.12 -4.88 9 -9.12 12 s -9 5.58 -11.77 9.92 c -1.92 3 -2.78 6.48 -4.41 9.61 c -1.8 3.45 -4.49 6.35 -6.64 9.59 s -3.83 7.11 -3.17 10.95 a 1.29 1.29 0 0 0 0.46 0.92 a 1.31 1.31 0 0 0 1.27 -0.14 c 4.36 -2.28 6.08 -7.49 7.91 -12 a 138.65 138.65 0 0 1 6.48 -13.32 c 1.08 -2 2.27 -4.18 4.28 -5.29 a 37.55 37.55 0 0 1 4.22 -1.47 a 14.19 14.19 0 0 0 5.21 -4.09 a 34.34 34.34 0 0 0 8 -23.31 c -0.06 -1.79 -0.16 -10.41 -2.85 -7.75 S 379.87 478.63 379.41 482.11 Z" stroke-linecap="round"/>
</g>
<g transform="matrix(0.8849 0 0 0.8849 281.0194 450.0934)" id="fc836297-f37e-43a2-86b4-5406f4a63596">
<path style="stroke: none; stroke-width: 1; stroke-dasharray: none; stroke-linecap: butt; stroke-dashoffset: 0; stroke-linejoin: miter; stroke-miterlimit: 4; is-custom-font: none; font-file-url: none; fill: rgb(162,101,101); fill-rule: nonzero; opacity: 1;" transform=" translate(-352.5319, -393.5991)" d="M 386 285.74 c 8.6 3.75 16 12 15.73 21.35 c -0.23 9.82 -8.45 19.07 -5.62 28.48 c 1.64 5.46 6.58 9.12 10.49 13.27 c 14.89 15.76 14.86 43.27 -0.08 59 c -5.72 6 -13.07 10.27 -19.12 16 c -21.33 20.1 -22.24 54.87 -10.82 81.86 a 133.14 133.14 0 0 1 -26.62 3 c -4.19 0 -9.32 -0.71 -10.84 -4.62 c -1.4 -3.61 1 -8.49 -1.76 -11.16 c -1.3 -1.25 -3.25 -1.42 -5 -1.71 c -11.26 -1.82 -20.5 -10.81 -24.72 -21.4 s -4 -22.51 -1.58 -33.65 c 1.72 -8.05 4.41 -16.91 0.42 -24.11 c -5 -9.06 -19.38 -12.88 -19.16 -23.24 c 0.18 -8.49 10.19 -12.62 15.87 -18.93 c 10.48 -11.62 5.49 -29.65 5.47 -45.31 c 0 -13.78 4.82 -28 15.08 -37.18 C 339 273.62 368.39 278.09 386 285.74 Z" stroke-linecap="round"/>
</g>
<g transform="matrix(0.8849 0 0 0.8849 233.4507 457.6291)" id="fc836297-f37e-43a2-86b4-5406f4a63596">
<path style="stroke: none; stroke-width: 1; stroke-dasharray: none; stroke-linecap: butt; stroke-dashoffset: 0; stroke-linejoin: miter; stroke-miterlimit: 4; is-custom-font: none; font-file-url: none; fill: rgb(0,0,0); fill-rule: nonzero; opacity: 0.1;" transform=" translate(-298.7759, -402.115)" d="M 308.12 401.78 c -4.39 -7.92 -15.92 -11.84 -18.6 -19.63 a 11.09 11.09 0 0 0 -2.16 6.26 c -0.22 10.36 14.14 14.18 19.16 23.25 a 18.89 18.89 0 0 1 2 10.42 C 310.1 415.12 311.49 407.86 308.12 401.78 Z" stroke-linecap="round"/>
</g>
<g transform="matrix(0.8849 0 0 0.8849 322.5774 379.5367)" id="fc836297-f37e-43a2-86b4-5406f4a63596">
<path style="stroke: none; stroke-width: 1; stroke-dasharray: none; stroke-linecap: butt; stroke-dashoffset: 0; stroke-linejoin: miter; stroke-miterlimit: 4; is-custom-font: none; font-file-url: none; fill: rgb(0,0,0); fill-rule: nonzero; opacity: 0.1;" transform=" translate(-399.4955, -313.865)" d="M 397.26 322.75 c 1.8 -5.25 4.41 -10.55 4.54 -16 a 15 15 0 0 0 -0.05 -1.77 C 399.74 311 396.66 316.84 397.26 322.75 Z" stroke-linecap="round"/>
</g>
<g transform="matrix(0.8849 0 0 0.8849 243.4672 394.0977)" id="fc836297-f37e-43a2-86b4-5406f4a63596">
<path style="stroke: none; stroke-width: 1; stroke-dasharray: none; stroke-linecap: butt; stroke-dashoffset: 0; stroke-linejoin: miter; stroke-miterlimit: 4; is-custom-font: none; font-file-url: none; fill: rgb(0,0,0); fill-rule: nonzero; opacity: 0.1;" transform=" translate(-310.0953, -330.32)" d="M 309.84 350.72 c 3.44 -10.87 0.47 -24.35 0.46 -36.41 c 0 -1.46 0.06 -2.93 0.17 -4.39 a 57.74 57.74 0 0 0 -1.78 14.26 C 308.71 332.79 310.22 342.13 309.84 350.72 Z" stroke-linecap="round"/>
</g>
<g transform="matrix(0.8849 0 0 0.8849 318.188 470.3142)" id="fc836297-f37e-43a2-86b4-5406f4a63596">
<path style="stroke: none; stroke-width: 1; stroke-dasharray: none; stroke-linecap: butt; stroke-dashoffset: 0; stroke-linejoin: miter; stroke-miterlimit: 4; is-custom-font: none; font-file-url: none; fill: rgb(0,0,0); fill-rule: nonzero; opacity: 0.1;" transform=" translate(-394.535, -416.45)" d="M 408.19 397.61 c -5.72 6 -13.07 10.27 -19.12 16 c -10.8 10.17 -16.35 24.1 -17.74 38.87 c 2.58 -11 7.79 -21.13 16.14 -29 c 6 -5.7 13.4 -9.95 19.12 -16 a 42.49 42.49 0 0 0 11.15 -27.06 A 40.61 40.61 0 0 1 408.19 397.61 Z" stroke-linecap="round"/>
</g>
<g transform="matrix(0.8849 0 0 0.8849 270.3738 519.0775)" id="fc836297-f37e-43a2-86b4-5406f4a63596">
<path style="stroke: none; stroke-width: 1; stroke-dasharray: none; stroke-linecap: butt; stroke-dashoffset: 0; stroke-linejoin: miter; stroke-miterlimit: 4; is-custom-font: none; font-file-url: none; fill: rgb(0,0,0); fill-rule: nonzero; opacity: 0.1;" transform=" translate(-340.5016, -471.5561)" d="M 351.63 498.44 c -4.19 0 -9.32 -0.72 -10.84 -4.63 c -1.4 -3.6 1 -8.48 -1.76 -11.16 c -1.3 -1.25 -3.26 -1.42 -5 -1.71 c -11.25 -1.81 -20.49 -10.81 -24.71 -21.39 c -3.11 -7.82 -3.78 -16.35 -3 -24.77 c -0.08 0.33 -0.15 0.66 -0.22 1 c -2.38 11.14 -2.63 23.07 1.58 33.66 s 13.46 19.58 24.71 21.39 c 1.78 0.29 3.74 0.47 5 1.71 c 2.79 2.68 0.36 7.56 1.76 11.16 c 1.52 3.91 6.65 4.68 10.84 4.63 a 133.23 133.23 0 0 0 26.62 -3 a 89.38 89.38 0 0 1 -3.23 -8.93 A 132.74 132.74 0 0 1 351.63 498.44 Z" stroke-linecap="round"/>
</g>
<g transform="matrix(0.8849 0 0 0.8849 310.9893 501.3159)" id="fc836297-f37e-43a2-86b4-5406f4a63596">
<path style="stroke: none; stroke-width: 1; stroke-dasharray: none; stroke-linecap: butt; stroke-dashoffset: 0; stroke-linejoin: miter; stroke-miterlimit: 4; is-custom-font: none; font-file-url: none; fill: rgb(0,0,0); fill-rule: nonzero; opacity: 0.1;" transform=" translate(-386.4001, -451.4842)" d="M 384.38 454.83 c 2.47 1.86 5.15 -5.23 3.62 -7 C 387.59 448.29 384 454.57 384.38 454.83 Z" stroke-linecap="round"/>
</g>
<g transform="matrix(0.8849 0 0 0.8849 322.7304 612.8442)" id="fc836297-f37e-43a2-86b4-5406f4a63596">
<path style="stroke: none; stroke-width: 1; stroke-dasharray: none; stroke-linecap: butt; stroke-dashoffset: 0; stroke-linejoin: miter; stroke-miterlimit: 4; is-custom-font: none; font-file-url: none; fill: rgb(0,0,0); fill-rule: nonzero; opacity: 0.1;" transform=" translate(-399.6683, -577.519)" d="M 394.91 583.17 c 2.91 -1 6 -2 7.9 -4.4 c 1.57 -1.93 2.86 -9.59 -0.46 -5.92 C 399.53 576 398.2 580.15 394.91 583.17 Z" stroke-linecap="round"/>
</g>
<g transform="matrix(0.8849 0 0 0.8849 344.8242 608.9763)" id="fc836297-f37e-43a2-86b4-5406f4a63596">
<path style="stroke: none; stroke-width: 1; stroke-dasharray: none; stroke-linecap: butt; stroke-dashoffset: 0; stroke-linejoin: miter; stroke-miterlimit: 4; is-custom-font: none; font-file-url: none; fill: rgb(0,0,0); fill-rule: nonzero; opacity: 0.1;" transform=" translate(-424.6359, -573.1482)" d="M 424.54 575.14 c -0.35 2.36 -1 4.81 -2.67 6.51 c -0.31 0.32 -1 0.52 -1.09 0.09 a 25.29 25.29 0 0 0 5.16 -3.64 c 3.38 -3.35 3.84 -11.6 -1.31 -13.79 C 424.58 567.93 425.09 571.46 424.54 575.14 Z" stroke-linecap="round"/>
</g>
<g transform="matrix(0.8849 0 0 0.8849 357.9075 600.2603)" id="fc836297-f37e-43a2-86b4-5406f4a63596">
<path style="stroke: none; stroke-width: 1; stroke-dasharray: none; stroke-linecap: butt; stroke-dashoffset: 0; stroke-linejoin: miter; stroke-miterlimit: 4; is-custom-font: none; font-file-url: none; fill: rgb(69,75,105); fill-rule: nonzero; opacity: 1;" transform=" translate(-439.421, -563.2984)" d="M 460.11 560.27 s -28.38 -11.15 -38.64 -10 s 11.62 17.32 11.62 17.32 l 13.08 8.82 s 8 -3 8.53 -3.23 S 460.11 560.27 460.11 560.27 Z" stroke-linecap="round"/>
</g>
<g transform="matrix(0.8849 0 0 0.8849 294.6502 573.4165)" id="fc836297-f37e-43a2-86b4-5406f4a63596">
<path style="stroke: none; stroke-width: 1; stroke-dasharray: none; stroke-linecap: butt; stroke-dashoffset: 0; stroke-linejoin: miter; stroke-miterlimit: 4; is-custom-font: none; font-file-url: none; fill: rgb(86,86,97); fill-rule: nonzero; opacity: 1;" transform=" translate(-367.9356, -532.963)" d="M 264.84 440.65 s 21.32 -12.36 49.46 3 s 32.83 105.75 32.83 105.75 S 335.62 641.49 380 621 c 0 0 81 -25.15 89.11 -19.61 c 0 0 7.68 0 -7.67 3.41 S 386.79 627 386.79 627 s -19.17 6.7 -27.29 0 s -31.13 0.86 -34.12 -45.2 a 801 801 0 0 0 -10.66 -86.56 l -7.91 -23.45 Z" stroke-linecap="round"/>
</g>
<g transform="matrix(0.8849 0 0 0.8849 240.5333 572.8532)" id="fc836297-f37e-43a2-86b4-5406f4a63596">
<path style="stroke: none; stroke-width: 1; stroke-dasharray: none; stroke-linecap: butt; stroke-dashoffset: 0; stroke-linejoin: miter; stroke-miterlimit: 4; is-custom-font: none; font-file-url: none; fill: rgb(255,255,255); fill-rule: nonzero; opacity: 1;" transform=" translate(-306.7798, -532.3264)" d="M 262.28 583.07 s 9.38 -93.38 -6 -127.07 c -13.38 -29.36 38.36 -15.63 51.86 -11.63 a 9.83 9.83 0 0 1 5.18 3.7 c 8 11.25 36.7 56.34 28.24 116.67 c 0 0 -3.41 53.73 17.91 62.25 l -65.69 -21.16 c -5.33 -1.72 -10.74 -3.15 -16.2 -4.39 C 270.62 599.86 259.28 595.37 262.28 583.07 Z" stroke-linecap="round"/>
</g>
<g transform="matrix(0.8849 0 0 0.8849 621.0051 717.2853)" id="fc836297-f37e-43a2-86b4-5406f4a63596">
<polygon style="stroke: none; stroke-width: 1; stroke-dasharray: none; stroke-linecap: butt; stroke-dashoffset: 0; stroke-linejoin: miter; stroke-miterlimit: 4; is-custom-font: none; font-file-url: none; fill: rgb(86,86,97); fill-rule: nonzero; opacity: 1;" points="-7.25,61.855 1.28,61.855 6.87,-52.785 7.25,-59.305 0,-61.855 -0.48,-54.925 -7.25,61.855 "/>
</g>
<g transform="matrix(0.8849 0 0 0.8849 624.0005 666.5629)" id="fc836297-f37e-43a2-86b4-5406f4a63596">
<polygon style="stroke: none; stroke-width: 1; stroke-dasharray: none; stroke-linecap: butt; stroke-dashoffset: 0; stroke-linejoin: miter; stroke-miterlimit: 4; is-custom-font: none; font-file-url: none; fill: rgb(0,0,0); fill-rule: nonzero; opacity: 0.1;" points="-3.865,2.395 3.485,4.535 3.865,-1.985 -3.385,-4.535 -3.865,2.395 "/>
</g>
<g transform="matrix(0.8849 0 0 0.8849 527.8663 716.7555)" id="fc836297-f37e-43a2-86b4-5406f4a63596">
<path style="stroke: none; stroke-width: 1; stroke-dasharray: none; stroke-linecap: butt; stroke-dashoffset: 0; stroke-linejoin: miter; stroke-miterlimit: 4; is-custom-font: none; font-file-url: none; fill: rgb(162,101,101); fill-rule: nonzero; opacity: 1;" transform=" translate(-631.4866, -694.9462)" d="M 658.27 713.13 a 19.23 19.23 0 0 1 -1.2 4.58 a 8.09 8.09 0 0 1 -3.65 4.56 a 9.64 9.64 0 0 1 -3.69 0.73 c -4.71 0.28 -9.69 0.21 -13.74 -2.19 a 25 25 0 0 1 -4.71 -3.93 a 214.9 214.9 0 0 1 -24.72 -29.4 c -1.23 -1.77 -2.5 -3.86 -1.95 -6 a 93.21 93.21 0 0 0 26.77 -12.25 a 12.92 12.92 0 0 1 3.76 -2 a 20.43 20.43 0 0 1 7.06 -0.26 c 2.27 0.37 2.37 0.44 3.24 3 c 1.44 4.33 1.2 9 2.82 13.33 a 41.3 41.3 0 0 0 3.74 6.84 C 656.18 697.13 659.39 705.38 658.27 713.13 Z" stroke-linecap="round"/>
</g>
<g transform="matrix(0.8849 0 0 0.8849 527.7667 721.9062)" id="fc836297-f37e-43a2-86b4-5406f4a63596">
<path style="stroke: none; stroke-width: 1; stroke-dasharray: none; stroke-linecap: butt; stroke-dashoffset: 0; stroke-linejoin: miter; stroke-miterlimit: 4; is-custom-font: none; font-file-url: none; fill: rgb(0,0,0); fill-rule: nonzero; opacity: 0.1;" transform=" translate(-631.374, -700.7669)" d="M 658.27 713.13 a 19.23 19.23 0 0 1 -1.2 4.58 a 8.09 8.09 0 0 1 -3.65 4.56 a 9.64 9.64 0 0 1 -3.69 0.73 c -4.71 0.28 -9.69 0.21 -13.74 -2.19 a 25 25 0 0 1 -4.71 -3.93 a 214.9 214.9 0 0 1 -24.72 -29.4 c -1.23 -1.77 -2.5 -3.86 -1.95 -6 a 92.81 92.81 0 0 0 9.16 -3.06 l 0.15 0.11 c 3.07 2.19 5.3 5.33 7.47 8.41 l 7 9.85 a 29 29 0 0 0 4.39 5.3 a 29.38 29.38 0 0 0 6.79 4.08 c 3.29 1.59 6.58 3.18 10 4.46 C 651.78 711.52 655.52 711.87 658.27 713.13 Z" stroke-linecap="round"/>
</g>
<g transform="matrix(0.8849 0 0 0.8849 565.1716 678.7483)" id="fc836297-f37e-43a2-86b4-5406f4a63596">
<path style="stroke: none; stroke-width: 1; stroke-dasharray: none; stroke-linecap: butt; stroke-dashoffset: 0; stroke-linejoin: miter; stroke-miterlimit: 4; is-custom-font: none; font-file-url: none; fill: rgb(69,75,105); fill-rule: nonzero; opacity: 1;" transform=" translate(-673.644, -651.9954)" d="M 664.73 606.34 a 30.1 30.1 0 0 1 -2.5 4.77 A 204.16 204.16 0 0 0 640.91 661 c -1.38 -0.31 -2.16 1.57 -2.15 3 s 0 3.23 -1.32 3.75 c -0.39 0.15 -0.83 0.15 -1.21 0.32 c -0.84 0.38 -1.08 1.45 -1.2 2.37 l -1.18 8.66 c -0.41 3 -0.77 6.25 0.7 8.9 a 14.23 14.23 0 0 0 3.87 4 l 19.52 15.4 c 0.8 0.63 1.79 1.3 2.75 0.95 c 2.19 -0.8 0.25 -4.72 2 -6.31 c 1.16 -1.09 3 -0.27 4.61 -0.4 c 2.1 -0.16 3.69 -2.09 4.22 -4.12 a 19.59 19.59 0 0 0 0.11 -6.26 a 5.68 5.68 0 0 1 0.32 -2.81 a 6.82 6.82 0 0 1 2.39 -2.29 a 25.66 25.66 0 0 0 10.51 -21.64 a 12 12 0 0 1 0.14 -3.83 a 10.09 10.09 0 0 1 1.81 -3.16 c 7.09 -9.59 13 -20 18.87 -30.39 c 3.38 -6 6.82 -12.09 8 -18.85 a 1.75 1.75 0 0 0 -1.44 -2.4 a 68 68 0 0 0 -8.94 -2.14 c -9.19 -1.86 -18.06 -4.73 -27 -7.49 S 667.42 599.12 664.73 606.34 Z" stroke-linecap="round"/>
</g>
<g transform="matrix(0.8849 0 0 0.8849 629.6816 731.0632)" id="fc836297-f37e-43a2-86b4-5406f4a63596">
<polygon style="stroke: none; stroke-width: 1; stroke-dasharray: none; stroke-linecap: butt; stroke-dashoffset: 0; stroke-linejoin: miter; stroke-miterlimit: 4; is-custom-font: none; font-file-url: none; fill: rgb(86,86,97); fill-rule: nonzero; opacity: 1;" points="-124.085,70.535 -110.005,72.235 -45.195,-74.875 -27.715,-76.155 2.995,-67.195 8.955,107.955 23.025,107.955 17.485,-73.595 51.175,-72.735 111.295,76.925 124.085,76.925 60.855,-97.985 58.425,-104.725 -35.815,-107.955 -59.305,-94.785 -59.605,-94.025 -124.085,70.535 "/>
</g>
<g transform="matrix(0.8849 0 0 0.8849 630.2347 648.6584)" id="fc836297-f37e-43a2-86b4-5406f4a63596">
<path style="stroke: none; stroke-width: 1; stroke-dasharray: none; stroke-linecap: butt; stroke-dashoffset: 0; stroke-linejoin: miter; stroke-miterlimit: 4; is-custom-font: none; font-file-url: none; fill: rgb(0,0,0); fill-rule: nonzero; opacity: 0.1;" transform=" translate(-747.17, -617.9917)" d="M 686.94 617.09 c 20.25 6.1 41.27 12.76 41.27 12.76 s 19.17 6.69 27.29 0 a 12.27 12.27 0 0 1 3.39 -1.87 a 16.7 16.7 0 0 1 -3.39 1.87 l 51.9 -16.73 L 805 606.39 l -94.24 -3.23 l -23.49 13.17 Z" stroke-linecap="round"/>
</g>
<g transform="matrix(0.8849 0 0 0.8849 601.2017 635.5127)" id="fc836297-f37e-43a2-86b4-5406f4a63596">
<path style="stroke: none; stroke-width: 1; stroke-dasharray: none; stroke-linecap: butt; stroke-dashoffset: 0; stroke-linejoin: miter; stroke-miterlimit: 4; is-custom-font: none; font-file-url: none; fill: rgb(255,255,255); fill-rule: nonzero; opacity: 1;" transform=" translate(-714.3607, -603.1361)" d="M 782.79 588.06 l -38.37 -8.53 s -91.68 17.06 -98.5 23.88 c 0 0 73.34 14.92 81.44 20 S 783.65 634.11 782.79 588.06 Z" stroke-linecap="round"/>
</g>
<g transform="matrix(0.8849 0 0 0.8849 504.6361 727.9631)" id="fc836297-f37e-43a2-86b4-5406f4a63596">
<path style="stroke: none; stroke-width: 1; stroke-dasharray: none; stroke-linecap: butt; stroke-dashoffset: 0; stroke-linejoin: miter; stroke-miterlimit: 4; is-custom-font: none; font-file-url: none; fill: rgb(162,101,101); fill-rule: nonzero; opacity: 1;" transform=" translate(-605.2347, -707.6117)" d="M 640.41 725.14 c -2.31 4.4 -8 5.64 -13 5.71 a 54.89 54.89 0 0 1 -20.32 -3.63 c -3.7 -1.42 -7.25 -3.25 -11.07 -4.29 c -5.69 -1.56 -12 -1.43 -17 -4.56 a 20 20 0 0 1 -6.39 -6.93 c -0.29 -0.49 -0.57 -1 -0.83 -1.52 c -2.39 -4.65 -3.5 -10.06 -2.17 -15.08 s 6.16 -10.55 11.76 -10.47 c 6.65 0.1 14.58 3.25 21 4.88 c 8 2 16 4.31 23.07 8.54 c 5.92 3.56 11.15 8.67 13.94 14.91 a 25.27 25.27 0 0 1 1.32 3.72 C 641.59 719.3 641.79 722.51 640.41 725.14 Z" stroke-linecap="round"/>
</g>
<g transform="matrix(0.8849 0 0 0.8849 505.8508 739.2681)" id="fc836297-f37e-43a2-86b4-5406f4a63596">
<path style="stroke: none; stroke-width: 1; stroke-dasharray: none; stroke-linecap: butt; stroke-dashoffset: 0; stroke-linejoin: miter; stroke-miterlimit: 4; is-custom-font: none; font-file-url: none; fill: rgb(0,0,0); fill-rule: nonzero; opacity: 0.1;" transform=" translate(-606.6074, -720.3871)" d="M 640.41 725.14 c -2.31 4.4 -8 5.64 -13 5.71 a 54.89 54.89 0 0 1 -20.32 -3.63 c -3.7 -1.42 -7.25 -3.25 -11.07 -4.29 c -5.69 -1.56 -12 -1.43 -17 -4.56 a 20 20 0 0 1 -6.39 -6.93 c -0.29 -0.49 -0.57 -1 -0.83 -1.52 c 1 0.08 1.92 0.18 2.42 0.23 c 6.14 0.59 12 2.83 17.86 4.52 a 100.32 100.32 0 0 0 25 3.9 c 6 0.17 12.26 -0.27 17.5 -3.2 a 45.91 45.91 0 0 1 4.86 -2.67 a 25.27 25.27 0 0 1 1.32 3.72 C 641.59 719.3 641.79 722.51 640.41 725.14 Z" stroke-linecap="round"/>
</g>
<g transform="matrix(0.8849 0 0 0.8849 554.2958 653.2241)" id="fc836297-f37e-43a2-86b4-5406f4a63596">
<path style="stroke: none; stroke-width: 1; stroke-dasharray: none; stroke-linecap: butt; stroke-dashoffset: 0; stroke-linejoin: miter; stroke-miterlimit: 4; is-custom-font: none; font-file-url: none; fill: rgb(69,75,105); fill-rule: nonzero; opacity: 1;" transform=" translate(-661.3537, -623.1512)" d="M 683.38 535 c -13 -2.13 -26.24 -2.65 -39.42 -3.17 l -16.12 -0.64 a 7.31 7.31 0 0 0 -3.39 0.41 a 22.09 22.09 0 0 0 -2.65 2 c -1.62 1.1 -3.69 1.22 -5.64 1.33 A 280.77 280.77 0 0 0 575 540.27 c -7 1.43 -14.27 3.3 -19.53 8.13 c -5.56 5.11 -8 12.9 -8.19 20.44 s 1.79 14.95 3.88 22.19 a 101.09 101.09 0 0 1 4.37 26.86 a 50.25 50.25 0 0 0 0.29 7.57 a 36.22 36.22 0 0 0 2.11 7 l 7.36 19.65 c 0.65 1.72 1.29 3.43 2 5.11 s 1.39 3 2 4.58 c 0.9 2.16 1.61 4.4 2.32 6.63 l 4.9 15.39 l 0.64 2 c 1.77 5.54 3.58 11.18 6.92 15.94 s 8.51 8.6 14.32 8.89 a 43.86 43.86 0 0 1 5.62 0.15 a 22.72 22.72 0 0 1 4.61 1.67 a 35.17 35.17 0 0 0 13.77 2.69 c 4.35 0 9.18 -1.21 11.54 -4.87 c 1.3 -2 1.64 -4.46 2 -6.82 c 0.63 -4.74 1.24 -9.69 -0.37 -14.19 c -1 -2.69 -2.68 -5 -3.84 -7.65 c -1.62 -3.61 -2.15 -7.6 -3.2 -11.41 a 43.58 43.58 0 0 0 -13.3 -21.16 a 208.58 208.58 0 0 1 -5 -27.38 a 24.09 24.09 0 0 0 -1.21 -6 c -1.17 -3 -3.54 -5.43 -4.53 -8.49 c -0.93 -2.84 -0.65 -6.12 -2.34 -8.57 c 14.07 3.87 28 3 42.61 2.77 a 116.42 116.42 0 0 0 14 -0.8 a 44 44 0 0 1 6.56 -0.7 c 4.52 0 8.76 2 12.91 3.76 c 11.73 5 24.09 8.93 36.83 9.47 c 13.15 0.55 26.15 -2.54 39 -5.6 c 5.65 -1.35 11.52 -2.81 16 -6.52 s 7 -10.4 4.24 -15.49 c -2.1 -3.83 -6.45 -5.71 -10.51 -7.31 c -11.24 -4.44 -22.54 -8.77 -33.37 -14.14 C 713.87 556 701.5 538 683.38 535 Z" stroke-linecap="round"/>
</g>
<g transform="matrix(0.8849 0 0 0.8849 564.8713 544.5529)" id="fc836297-f37e-43a2-86b4-5406f4a63596">
<path style="stroke: none; stroke-width: 1; stroke-dasharray: none; stroke-linecap: butt; stroke-dashoffset: 0; stroke-linejoin: miter; stroke-miterlimit: 4; is-custom-font: none; font-file-url: none; fill: rgb(161,97,106); fill-rule: nonzero; opacity: 1;" transform=" translate(-673.3048, -500.345)" d="M 660.2 489.76 c -1.57 3.4 -4.21 6.18 -6.16 9.38 a 23.77 23.77 0 0 0 -3 17.65 a 20.08 20.08 0 0 0 11.25 13.69 a 28.23 28.23 0 0 0 7.8 1.88 c 3.52 0.43 7.27 0.52 10.38 -1.18 A 15.16 15.16 0 0 0 686 525.4 c 2.69 -4.5 4.22 -9.57 5.62 -14.62 c 2.59 -9.32 4.8 -18.88 4.48 -28.55 c -0.11 -3.33 -0.77 -7.08 -3.53 -9 a 11.87 11.87 0 0 0 -4.64 -1.52 l -13.19 -2.36 c -2.55 -0.46 -7 -2.33 -9.21 -0.49 s -2.38 7.28 -2.76 9.83 C 662.17 482.46 661.8 486.29 660.2 489.76 Z" stroke-linecap="round"/>
</g>
<g transform="matrix(0.8849 0 0 0.8849 682.6833 520.4562)" id="fc836297-f37e-43a2-86b4-5406f4a63596">
<path style="stroke: none; stroke-width: 1; stroke-dasharray: none; stroke-linecap: butt; stroke-dashoffset: 0; stroke-linejoin: miter; stroke-miterlimit: 4; is-custom-font: none; font-file-url: none; fill: rgb(161,97,106); fill-rule: nonzero; opacity: 1;" transform=" translate(-806.4408, -473.114)" d="M 820.53 451.08 L 817.08 480 a 133 133 0 0 0 -1.23 15.56 c 0 2.9 0.09 6.12 -1.83 8.29 a 7.56 7.56 0 0 1 -3.44 2.07 c -4.19 1.3 -8.76 0.14 -12.76 -1.65 c -2.34 -1 -4.73 -2.45 -5.79 -4.78 a 11.88 11.88 0 0 1 -0.75 -5.07 c 0 -17.25 1.63 -35.24 10.64 -49.94 a 10.89 10.89 0 0 1 3.17 -3.66 c 2.5 -1.6 5.77 -1.15 8.6 -0.28 c 1.74 0.53 6.44 1.12 7.55 2.67 S 820.77 449.09 820.53 451.08 Z" stroke-linecap="round"/>
</g>
<g transform="matrix(0.8849 0 0 0.8849 614.1559 376.559)" id="fc836297-f37e-43a2-86b4-5406f4a63596">
<circle style="stroke: none; stroke-width: 1; stroke-dasharray: none; stroke-linecap: butt; stroke-dashoffset: 0; stroke-linejoin: miter; stroke-miterlimit: 4; is-custom-font: none; font-file-url: none; fill: rgb(161,97,106); fill-rule: nonzero; opacity: 1;" cx="0" cy="0" r="36"/>
</g>
<g transform="matrix(0.8849 0 0 0.8849 623.789 407.9907)" id="fc836297-f37e-43a2-86b4-5406f4a63596">
<path style="stroke: none; stroke-width: 1; stroke-dasharray: none; stroke-linecap: butt; stroke-dashoffset: 0; stroke-linejoin: miter; stroke-miterlimit: 4; is-custom-font: none; font-file-url: none; fill: rgb(161,97,106); fill-rule: nonzero; opacity: 1;" transform=" translate(-739.8859, -346.02)" d="M 719.37 364.15 a 18.57 18.57 0 0 1 -2.23 8 q 27.57 -4.2 55 -9.36 a 25.83 25.83 0 0 1 -12.76 -15 a 42.36 42.36 0 0 1 -1.62 -10.69 a 123.57 123.57 0 0 1 0.33 -17.21 c -6.4 0.67 -12.46 3.07 -18.56 5.13 a 183 183 0 0 1 -18.69 5.23 c -3.05 0.68 -6.12 1.26 -9.2 1.8 c -3.6 0.64 -5.33 0.63 -2.83 3.79 C 715.52 344.28 720.31 352.86 719.37 364.15 Z" stroke-linecap="round"/>
</g>
<g transform="matrix(0.8849 0 0 0.8849 626.6994 522.0041)" id="fc836297-f37e-43a2-86b4-5406f4a63596">
<path style="stroke: none; stroke-width: 1; stroke-dasharray: none; stroke-linecap: butt; stroke-dashoffset: 0; stroke-linejoin: miter; stroke-miterlimit: 4; is-custom-font: none; font-file-url: none; fill: rgb(48,30,235); fill-rule: nonzero; opacity: 1;" transform=" translate(-743.1749, -474.8634)" d="M 730.43 359.34 c -4.75 0.71 -9.73 1.51 -13.52 4.45 a 51 51 0 0 0 -4.11 3.95 c -7.53 7.31 -18.16 10.25 -27.3 15.41 a 12 12 0 0 0 -3.88 3.05 c -1 1.39 -1.51 3.16 -2.56 4.54 c -1.22 1.6 -3.15 2.6 -4.1 4.37 s -0.74 3.65 -0.84 5.53 c -0.23 4.13 -1.79 8.05 -3 12 c -5.55 18.91 -2.51 40 -10.91 57.86 a 8.13 8.13 0 0 0 4.42 4.62 a 25.1 25.1 0 0 0 6.56 1.41 l 18.61 2.31 c 2.66 0.33 5.48 0.64 7.91 -0.47 a 92.94 92.94 0 0 0 -4.69 18.93 a 94.28 94.28 0 0 1 -2.1 11.72 c -2.56 8.8 -9 16.13 -16.63 21.14 a 6.15 6.15 0 0 0 -2.35 2.17 c -1 2 0.48 4.24 1.53 6.2 c 3.05 5.68 2.63 12.5 2.59 18.94 s 0.61 13.51 5.11 18.13 c 2.66 2.73 6.3 4.21 9.84 5.62 l 29.11 11.63 a 101.45 101.45 0 0 0 14.82 5 c 7.67 1.75 15.64 1.68 23.51 1.34 q 7.8 -0.33 15.58 -1 a 12.12 12.12 0 0 0 5.89 -1.55 a 11 11 0 0 0 3.45 -4.68 c 4.05 -8.81 5.41 -19.09 11.69 -26.47 c 4.31 -5.07 11 -9.12 11.49 -15.75 c 0.23 -3.3 -1.24 -6.51 -1.26 -9.82 c 0 -4.07 2.13 -7.94 2 -12 c -0.27 -6.61 -6.5 -11.65 -7.49 -18.19 c -2.52 -16.58 5.9 -33.14 11.07 -49.09 c 0.93 -2.85 2.13 -6 4.87 -7.22 s 6.6 -0.58 7.58 -3.28 c 2.47 -6.78 3.06 -14.73 2.74 -21.94 c -0.18 -4.17 -1.66 -8.25 -1.49 -12.43 c 0.12 -2.94 1.06 -5.8 1.31 -8.73 c 0.38 -4.43 -0.79 -8.83 -2 -13.11 a 20.54 20.54 0 0 0 -1.56 -4.42 a 21 21 0 0 0 -2.6 -3.57 l -4.87 -5.79 c -2.28 -2.71 -4.69 -5.52 -8 -6.89 c -1.07 -2.65 -4.49 -4.48 -6.94 -5.94 a 71.12 71.12 0 0 0 -7.64 -3.75 l -27.54 -12.16 a 11.28 11.28 0 0 0 -3.27 -1.06 a 10.59 10.59 0 0 0 -4.86 1 C 748.2 354.68 739.43 358 730.43 359.34 Z" stroke-linecap="round"/>
</g>
<g transform="matrix(0.8849 0 0 0.8849 623.9211 368.0985)" id="fc836297-f37e-43a2-86b4-5406f4a63596">
<path style="stroke: none; stroke-width: 1; stroke-dasharray: none; stroke-linecap: butt; stroke-dashoffset: 0; stroke-linejoin: miter; stroke-miterlimit: 4; is-custom-font: none; font-file-url: none; fill: rgb(70,67,83); fill-rule: nonzero; opacity: 1;" transform=" translate(-740.0353, -300.9391)" d="M 701.26 316.76 c -1.06 -3.73 -3.77 -6.95 -4.18 -10.81 c -0.37 -3.43 1.14 -6.75 2 -10.09 s 0.83 -7.42 -1.82 -9.64 c -0.44 -0.38 -1 -0.72 -1.16 -1.28 c -0.32 -1 0.69 -1.91 1 -2.92 c 0.57 -2 -1.9 -4.21 -1 -6.13 c 0.51 -1.05 1.79 -1.42 2.91 -1.75 c 4.28 -1.27 8.62 -4.09 9.55 -8.46 c 3.35 1.4 6.92 -1.23 9.49 -3.78 s 5.73 -5.46 9.27 -4.69 l -0.79 1.61 a 25.6 25.6 0 0 1 16.93 -0.19 l -1.68 0 a 23.22 23.22 0 0 1 13.39 4.53 c -0.43 0 -0.47 0.64 -0.3 1 c 1.4 3.27 5 5 8.47 5.81 c 2.09 0.5 4.36 0.86 5.89 2.36 s 1.56 4.63 -0.46 5.35 a 52.6 52.6 0 0 1 11.61 6.3 c 1 0.73 2.13 1.72 2 3 a 9.76 9.76 0 0 1 -0.62 1.87 a 6.47 6.47 0 0 0 0.21 3.2 l 1.11 4.58 c 1.22 5.09 2.18 11.22 -1.53 14.91 a 13.69 13.69 0 0 1 -2.41 16.16 a 6.66 6.66 0 0 1 -5 8.61 c 1.23 1.92 0.1 4.66 -1.84 5.86 s -4.38 1.21 -6.64 1 s -4.55 -0.72 -6.81 -0.38 c -3.29 0.51 -6.51 2.75 -9.68 1.75 a 21.73 21.73 0 0 1 -3.39 -1.82 c -2.22 -1.19 -4.8 -1.46 -7.26 -2 a 33.54 33.54 0 0 1 -11.73 -5 a 13.75 13.75 0 0 1 -5.39 -6 c -2.2 -5.56 1.5 -12.85 -2.39 -17.38 c -2.28 -2.64 -6.8 -2.68 -9.35 -0.42 c -1.27 1.13 -1.44 3.51 -2.76 4.36 A 17.45 17.45 0 0 1 701.26 316.76 Z" stroke-linecap="round"/>
</g>
<g transform="matrix(0.8849 0 0 0.8849 548.5794 635.29)" id="fc836297-f37e-43a2-86b4-5406f4a63596">
<path style="stroke: none; stroke-width: 1; stroke-dasharray: none; stroke-linecap: butt; stroke-dashoffset: 0; stroke-linejoin: miter; stroke-miterlimit: 4; is-custom-font: none; font-file-url: none; fill: rgb(0,0,0); fill-rule: nonzero; opacity: 0.1;" transform=" translate(-654.8938, -602.8844)" d="M 652.34 603.5 a 16.5 16.5 0 0 1 -3.63 -4 a 7.46 7.46 0 0 1 -1.1 -5.17 a 14.79 14.79 0 0 0 3.89 12.72 c 2.51 2.57 7.22 5.09 10.89 4.21 C 661.87 608.32 654.67 605.48 652.34 603.5 Z" stroke-linecap="round"/>
</g>
<g transform="matrix(0.8849 0 0 0.8849 630.1411 575.1863)" id="fc836297-f37e-43a2-86b4-5406f4a63596">
<path style="stroke: none; stroke-width: 1; stroke-dasharray: none; stroke-linecap: butt; stroke-dashoffset: 0; stroke-linejoin: miter; stroke-miterlimit: 4; is-custom-font: none; font-file-url: none; fill: rgb(86,86,97); fill-rule: nonzero; opacity: 1;" transform=" translate(-747.0644, -534.963)" d="M 850.16 442.65 s -21.32 -12.36 -49.46 3 s -32.83 105.75 -32.83 105.75 S 779.38 643.49 735 623 c 0 0 -81 -25.15 -89.11 -19.61 c 0 0 -7.68 0 7.67 3.41 S 728.21 629 728.21 629 s 19.17 6.7 27.29 0 s 31.13 0.86 34.12 -45.2 a 801 801 0 0 1 10.66 -86.56 l 7.91 -23.45 Z" stroke-linecap="round"/>
</g>
<g transform="matrix(0.8849 0 0 0.8849 684.2579 574.623)" id="fc836297-f37e-43a2-86b4-5406f4a63596">
<path style="stroke: none; stroke-width: 1; stroke-dasharray: none; stroke-linecap: butt; stroke-dashoffset: 0; stroke-linejoin: miter; stroke-miterlimit: 4; is-custom-font: none; font-file-url: none; fill: rgb(255,255,255); fill-rule: nonzero; opacity: 1;" transform=" translate(-808.2202, -534.3264)" d="M 852.72 585.07 s -9.38 -93.38 6 -127.07 c 13.38 -29.36 -38.36 -15.63 -51.86 -11.63 a 9.83 9.83 0 0 0 -5.18 3.7 c -8 11.25 -36.7 56.34 -28.24 116.67 c 0 0 3.41 53.73 -17.91 62.25 l 65.69 -21.16 c 5.33 -1.72 10.74 -3.15 16.2 -4.39 C 844.38 601.86 855.72 597.37 852.72 585.07 Z" stroke-linecap="round"/>
</g>
<g transform="matrix(0.8849 0 0 0.8849 876.0244 766.3574)" id="fc836297-f37e-43a2-86b4-5406f4a63596">
<ellipse style="stroke: none; stroke-width: 1; stroke-dasharray: none; stroke-linecap: butt; stroke-dashoffset: 0; stroke-linejoin: miter; stroke-miterlimit: 4; is-custom-font: none; font-file-url: none; fill: rgb(48,30,235); fill-rule: nonzero; opacity: 0.1;" cx="0" cy="0" rx="97.44" ry="15.65"/>
</g>
<g transform="matrix(0.8849 0 0 0.8849 876.02 563.5162)" id="fc836297-f37e-43a2-86b4-5406f4a63596">
<rect style="stroke: none; stroke-width: 1; stroke-dasharray: none; stroke-linecap: butt; stroke-dashoffset: 0; stroke-linejoin: miter; stroke-miterlimit: 4; is-custom-font: none; font-file-url: none; fill: rgb(83,84,97); fill-rule: nonzero; opacity: 1;" x="-3.135" y="-70.585" rx="0" ry="0" width="6.27" height="141.17"/>
</g>
<g transform="matrix(0.8849 0 0 0.8849 876.0219 691.7382)" id="fc836297-f37e-43a2-86b4-5406f4a63596">
<path style="stroke: none; stroke-width: 1; stroke-dasharray: none; stroke-linecap: butt; stroke-dashoffset: 0; stroke-linejoin: miter; stroke-miterlimit: 4; is-custom-font: none; font-file-url: none; fill: rgb(86,86,97); fill-rule: nonzero; opacity: 1;" transform=" translate(-1024.9271, -666.675)" d="M 1067.47 591.93 l -0.39 6.36 l -0.56 9 l -0.23 3.74 l -0.55 9 l -0.24 3.74 l -0.56 9 l -6.32 102.07 A 17.3 17.3 0 0 1 1041.36 751 h -32.87 a 17.28 17.28 0 0 1 -17.24 -16.22 L 984.91 632.7 l -0.55 -9 l -0.23 -3.74 l -0.57 -9 l -0.23 -3.74 l -0.55 -9 l -0.4 -6.36 a 9 9 0 0 1 8.94 -9.51 h 67.22 A 9 9 0 0 1 1067.47 591.93 Z" stroke-linecap="round"/>
</g>
<g transform="matrix(0.8849 0 0 0.8849 876.0245 635.1931)" id="fc836297-f37e-43a2-86b4-5406f4a63596">
<polygon style="stroke: none; stroke-width: 1; stroke-dasharray: none; stroke-linecap: butt; stroke-dashoffset: 0; stroke-linejoin: miter; stroke-miterlimit: 4; is-custom-font: none; font-file-url: none; fill: rgb(157,156,181); fill-rule: nonzero; opacity: 1;" points="42.15,-4.485 41.59,4.485 -41.59,4.485 -42.15,-4.485 42.15,-4.485 "/>
</g>
<g transform="matrix(0.8849 0 0 0.8849 876.0244 646.4535)" id="fc836297-f37e-43a2-86b4-5406f4a63596">
<polygon style="stroke: none; stroke-width: 1; stroke-dasharray: none; stroke-linecap: butt; stroke-dashoffset: 0; stroke-linejoin: miter; stroke-miterlimit: 4; is-custom-font: none; font-file-url: none; fill: rgb(157,156,181); fill-rule: nonzero; opacity: 1;" points="41.36,-4.49 40.81,4.49 -40.8,4.49 -41.36,-4.49 41.36,-4.49 "/>
</g>
<g transform="matrix(0.8849 0 0 0.8849 876.0244 657.705)" id="fc836297-f37e-43a2-86b4-5406f4a63596">
<polygon style="stroke: none; stroke-width: 1; stroke-dasharray: none; stroke-linecap: butt; stroke-dashoffset: 0; stroke-linejoin: miter; stroke-miterlimit: 4; is-custom-font: none; font-file-url: none; fill: rgb(157,156,181); fill-rule: nonzero; opacity: 1;" points="40.57,-4.485 40.01,4.485 -40.01,4.485 -40.57,-4.485 40.57,-4.485 "/>
</g>
<g transform="matrix(0.8849 0 0 0.8849 817.5105 565.494)" id="fc836297-f37e-43a2-86b4-5406f4a63596">
<path style="stroke: none; stroke-width: 1; stroke-dasharray: none; stroke-linecap: butt; stroke-dashoffset: 0; stroke-linejoin: miter; stroke-miterlimit: 4; is-custom-font: none; font-file-url: none; fill: rgb(48,30,235); fill-rule: nonzero; opacity: 1;" transform=" translate(-958.805, -524.01)" d="M 973.2 504.1 c 36.52 26.42 51.73 67.74 51.73 67.74 s -44 -1.51 -80.53 -27.93 s -51.72 -67.73 -51.72 -67.73 S 936.69 477.69 973.2 504.1 Z" stroke-linecap="round"/>
</g>
<g transform="matrix(0.8849 0 0 0.8849 817.5104 565.494)" id="fc836297-f37e-43a2-86b4-5406f4a63596">
<path style="stroke: rgb(83,84,97); stroke-width: 2; stroke-dasharray: none; stroke-linecap: butt; stroke-dashoffset: 0; stroke-linejoin: miter; stroke-miterlimit: 10; is-custom-font: none; font-file-url: none; fill: none; fill-rule: nonzero; opacity: 1;" transform=" translate(-958.805, -524.01)" d="M 892.68 476.18 s 45.67 25.35 60.33 46.34 s 71.92 49.32 71.92 49.32" stroke-linecap="round"/>
</g>
<g transform="matrix(0.8849 0 0 0.8849 844.199 510.3691)" id="fc836297-f37e-43a2-86b4-5406f4a63596">
<path style="stroke: none; stroke-width: 1; stroke-dasharray: none; stroke-linecap: butt; stroke-dashoffset: 0; stroke-linejoin: miter; stroke-miterlimit: 4; is-custom-font: none; font-file-url: none; fill: rgb(48,30,235); fill-rule: nonzero; opacity: 1;" transform=" translate(-988.965, -461.715)" d="M 996.77 450.88 c 19.88 14.37 28.16 36.87 28.16 36.87 s -24 -0.83 -43.83 -15.2 S 953 435.68 953 435.68 S 976.9 436.5 996.77 450.88 Z" stroke-linecap="round"/>
</g>
<g transform="matrix(0.8849 0 0 0.8849 844.2212 510.3692)" id="fc836297-f37e-43a2-86b4-5406f4a63596">
<path style="stroke: rgb(83,84,97); stroke-width: 2; stroke-dasharray: none; stroke-linecap: butt; stroke-dashoffset: 0; stroke-linejoin: miter; stroke-miterlimit: 10; is-custom-font: none; font-file-url: none; fill: none; fill-rule: nonzero; opacity: 1;" transform=" translate(-988.99, -461.715)" d="M 953 435.68 s 24.86 13.8 32.83 25.22 s 39.15 26.85 39.15 26.85" stroke-linecap="round"/>
</g>
<g transform="matrix(0.8849 0 0 0.8849 913.677 543.398)" id="fc836297-f37e-43a2-86b4-5406f4a63596">
<path style="stroke: none; stroke-width: 1; stroke-dasharray: none; stroke-linecap: butt; stroke-dashoffset: 0; stroke-linejoin: miter; stroke-miterlimit: 4; is-custom-font: none; font-file-url: none; fill: rgb(48,30,235); fill-rule: nonzero; opacity: 1;" transform=" translate(-1067.48, -499.04)" d="M 1053.81 486.6 c -22.83 25.09 -27.66 57.88 -27.66 57.88 s 32.19 -7.9 55 -33 s 27.66 -57.88 27.66 -57.88 S 1076.64 461.51 1053.81 486.6 Z" stroke-linecap="round"/>
</g>
<g transform="matrix(0.8849 0 0 0.8849 913.6858 543.4024)" id="fc836297-f37e-43a2-86b4-5406f4a63596">
<path style="stroke: rgb(83,84,97); stroke-width: 2; stroke-dasharray: none; stroke-linecap: butt; stroke-dashoffset: 0; stroke-linejoin: miter; stroke-miterlimit: 10; is-custom-font: none; font-file-url: none; fill: none; fill-rule: nonzero; opacity: 1;" transform=" translate(-1067.49, -499.045)" d="M 1108.83 453.61 s -29.74 25.72 -37.3 43.44 s -45.38 47.43 -45.38 47.43" stroke-linecap="round"/>
</g>
<g transform="matrix(0.8849 0 0 0.8849 462.9576 461.9828)" id="fc836297-f37e-43a2-86b4-5406f4a63596">
<path style="stroke: none; stroke-width: 1; stroke-dasharray: none; stroke-linecap: butt; stroke-dashoffset: 0; stroke-linejoin: miter; stroke-miterlimit: 4; is-custom-font: none; font-file-url: none; fill: rgb(223,230,245); fill-rule: nonzero; opacity: 1;" transform=" translate(-558.135, -407.035)" d="M 591.94 426.2 v 2.28 H 524.33 v -1.85 a 22.72 22.72 0 0 0 5.22 -2.78 a 22.21 22.21 0 0 0 9.28 -18.06 a 21.92 21.92 0 0 0 -0.69 -5.47 a 22.23 22.23 0 0 0 -12.28 -14.73 h 65.62 a 22.23 22.23 0 0 0 -12.28 14.73 a 21.92 21.92 0 0 0 -0.68 5.47 a 22.2 22.2 0 0 0 9.27 18.06 A 22.87 22.87 0 0 0 591.94 426.2 Z" stroke-linecap="round"/>
</g>
<g transform="matrix(0.8849 0 0 0.8849 463.431 449.5234)" id="fc836297-f37e-43a2-86b4-5406f4a63596">
<path style="stroke: none; stroke-width: 1; stroke-dasharray: none; stroke-linecap: butt; stroke-dashoffset: 0; stroke-linejoin: miter; stroke-miterlimit: 4; is-custom-font: none; font-file-url: none; fill: rgb(0,0,0); fill-rule: nonzero; opacity: 0.1;" transform=" translate(-558.67, -392.955)" d="M 591.48 385.59 a 22.23 22.23 0 0 0 -12.28 14.73 H 538.14 a 22.23 22.23 0 0 0 -12.28 -14.73 Z" stroke-linecap="round"/>
</g>
<g transform="matrix(0.8849 0 0 0.8849 462.8027 444.0547)" id="fc836297-f37e-43a2-86b4-5406f4a63596">
<path style="stroke: none; stroke-width: 1; stroke-dasharray: none; stroke-linecap: butt; stroke-dashoffset: 0; stroke-linejoin: miter; stroke-miterlimit: 4; is-custom-font: none; font-file-url: none; fill: rgb(223,230,245); fill-rule: nonzero; opacity: 1;" transform=" translate(-557.96, -386.775)" d="M 446.92 373.94 v 12.84 c 0 7.08 5.18 12.83 11.58 12.83 H 657.41 c 6.4 0 11.59 -5.75 11.59 -12.83 V 373.94 Z" stroke-linecap="round"/>
</g>
<g transform="matrix(0.8849 0 0 0.8849 462.9576 478.911)" id="fc836297-f37e-43a2-86b4-5406f4a63596">
<path style="stroke: none; stroke-width: 1; stroke-dasharray: none; stroke-linecap: butt; stroke-dashoffset: 0; stroke-linejoin: miter; stroke-miterlimit: 4; is-custom-font: none; font-file-url: none; fill: rgb(0,0,0); fill-rule: nonzero; opacity: 0.1;" transform=" translate(-558.135, -426.165)" d="M 591.94 426.2 v 2.28 H 524.33 v -1.85 a 22.72 22.72 0 0 0 5.22 -2.78 h 58.24 A 22.87 22.87 0 0 0 591.94 426.2 Z" stroke-linecap="round"/>
</g>
<g transform="matrix(0.8849 0 0 0.8849 462.9576 480.486)" id="fc836297-f37e-43a2-86b4-5406f4a63596">
<rect style="stroke: none; stroke-width: 1; stroke-dasharray: none; stroke-linecap: butt; stroke-dashoffset: 0; stroke-linejoin: miter; stroke-miterlimit: 4; is-custom-font: none; font-file-url: none; fill: rgb(223,230,245); fill-rule: nonzero; opacity: 1;" x="-56.145" y="-3.385" rx="3.39" ry="3.39" width="112.29" height="6.77"/>
</g>
<g transform="matrix(0.8849 0 0 0.8849 462.8027 366.4579)" id="fc836297-f37e-43a2-86b4-5406f4a63596">
<path style="stroke: none; stroke-width: 1; stroke-dasharray: none; stroke-linecap: butt; stroke-dashoffset: 0; stroke-linejoin: miter; stroke-miterlimit: 4; is-custom-font: none; font-file-url: none; fill: rgb(71,65,87); fill-rule: nonzero; opacity: 1;" transform=" translate(-557.96, -299.085)" d="M 669 233.31 a 11.58 11.58 0 0 0 -11.59 -11.58 H 458.5 a 11.57 11.57 0 0 0 -11.58 11.58 V 376.44 H 669 Z" stroke-linecap="round"/>
</g>
<g transform="matrix(0.8849 0 0 0.8849 462.8027 367.2543)" id="fc836297-f37e-43a2-86b4-5406f4a63596">
<path style="stroke: none; stroke-width: 1; stroke-dasharray: none; stroke-linecap: butt; stroke-dashoffset: 0; stroke-linejoin: miter; stroke-miterlimit: 4; is-custom-font: none; font-file-url: none; fill: rgb(76,76,120); fill-rule: nonzero; opacity: 1;" transform=" translate(-557.96, -299.985)" d="M 662.94 238.48 v 123 a 5.7 5.7 0 0 1 -5.7 5.71 H 458.68 a 5.7 5.7 0 0 1 -5.7 -5.71 v -123 a 5.62 5.62 0 0 1 0.76 -2.85 a 5.7 5.7 0 0 1 4.94 -2.85 H 657.24 A 5.7 5.7 0 0 1 662.94 238.48 Z" stroke-linecap="round"/>
</g>
<g transform="matrix(0.8849 0 0 0.8849 462.8027 302.891)" id="fc836297-f37e-43a2-86b4-5406f4a63596">
<circle style="stroke: none; stroke-width: 1; stroke-dasharray: none; stroke-linecap: butt; stroke-dashoffset: 0; stroke-linejoin: miter; stroke-miterlimit: 4; is-custom-font: none; font-file-url: none; fill: rgb(255,255,255); fill-rule: nonzero; opacity: 1;" cx="0" cy="0" r="2.67"/>
</g>
<g transform="matrix(0.8849 0 0 0.8849 462.8027 444.5281)" id="fc836297-f37e-43a2-86b4-5406f4a63596">
<circle style="stroke: none; stroke-width: 1; stroke-dasharray: none; stroke-linecap: butt; stroke-dashoffset: 0; stroke-linejoin: miter; stroke-miterlimit: 4; is-custom-font: none; font-file-url: none; fill: rgb(255,255,255); fill-rule: nonzero; opacity: 1;" cx="0" cy="0" r="6.59"/>
</g>
<g transform="matrix(0.8849 0 0 0.8849 462.8115 310.3065)" id="fc836297-f37e-43a2-86b4-5406f4a63596">
<path style="stroke: none; stroke-width: 1; stroke-dasharray: none; stroke-linecap: butt; stroke-dashoffset: 0; stroke-linejoin: miter; stroke-miterlimit: 4; is-custom-font: none; font-file-url: none; fill: rgb(200,202,215); fill-rule: nonzero; opacity: 1;" transform=" translate(-557.97, -235.63)" d="M 662.94 238.48 H 453 a 5.7 5.7 0 0 1 5.7 -5.7 H 657.24 A 5.7 5.7 0 0 1 662.94 238.48 Z" stroke-linecap="round"/>
</g>
<g transform="matrix(0.8849 0 0 0.8849 374.9499 310.3066)" id="fc836297-f37e-43a2-86b4-5406f4a63596">
<circle style="stroke: none; stroke-width: 1; stroke-dasharray: none; stroke-linecap: butt; stroke-dashoffset: 0; stroke-linejoin: miter; stroke-miterlimit: 4; is-custom-font: none; font-file-url: none; fill: rgb(237,237,244); fill-rule: nonzero; opacity: 1;" cx="0" cy="0" r="1.43"/>
</g>
<g transform="matrix(0.8849 0 0 0.8849 378.7372 310.3066)" id="fc836297-f37e-43a2-86b4-5406f4a63596">
<circle style="stroke: none; stroke-width: 1; stroke-dasharray: none; stroke-linecap: butt; stroke-dashoffset: 0; stroke-linejoin: miter; stroke-miterlimit: 4; is-custom-font: none; font-file-url: none; fill: rgb(237,237,244); fill-rule: nonzero; opacity: 1;" cx="0" cy="0" r="1.43"/>
</g>
<g transform="matrix(0.8849 0 0 0.8849 382.5246 310.3066)" id="fc836297-f37e-43a2-86b4-5406f4a63596">
<circle style="stroke: none; stroke-width: 1; stroke-dasharray: none; stroke-linecap: butt; stroke-dashoffset: 0; stroke-linejoin: miter; stroke-miterlimit: 4; is-custom-font: none; font-file-url: none; fill: rgb(237,237,244); fill-rule: nonzero; opacity: 1;" cx="0" cy="0" r="1.43"/>
</g>
</svg>